M48
; DRILL file {KiCad (6.0.1)} date Thu Mar 24 11:58:11 2022
; FORMAT={-:-/ absolute / inch / decimal}
; #@! TF.CreationDate,2022-03-24T11:58:11-04:00
; #@! TF.GenerationSoftware,Kicad,Pcbnew,(6.0.1)
; #@! TF.FileFunction,Plated,1,2,PTH
FMAT,2
INCH
; #@! TA.AperFunction,Plated,PTH,ViaDrill
T1C0.0157
; #@! TA.AperFunction,Plated,PTH,ComponentDrill
T2C0.0394
; #@! TA.AperFunction,Plated,PTH,ComponentDrill
T3C0.0402
; #@! TA.AperFunction,Plated,PTH,ComponentDrill
T4C0.0701
%
G90
G05
T1
X5.02Y-4.63
X5.255Y-2.725
X5.38Y-3.1175
X5.51Y-2.65
X6.315Y-3.1625
X6.32Y-2.81
X6.495Y-2.865
T2
X4.49Y-2.38
X4.49Y-2.48
X4.59Y-2.38
X4.59Y-2.48
X4.69Y-2.38
X4.69Y-2.48
X4.79Y-2.38
X4.79Y-2.48
X4.89Y-2.38
X4.89Y-2.48
X4.99Y-2.38
X4.99Y-2.48
X5.09Y-2.38
X5.09Y-2.48
X5.19Y-2.38
X5.19Y-2.48
X5.29Y-2.38
X5.29Y-2.48
X5.39Y-2.38
X5.39Y-2.48
X5.49Y-2.38
X5.49Y-2.48
X5.59Y-2.38
X5.59Y-2.48
X5.69Y-2.38
X5.69Y-2.48
X5.79Y-2.38
X5.79Y-2.48
X5.89Y-2.38
X5.89Y-2.48
X5.99Y-2.38
X5.99Y-2.48
X6.09Y-2.38
X6.09Y-2.48
X6.19Y-2.38
X6.19Y-2.48
X6.29Y-2.38
X6.29Y-2.48
X6.39Y-2.38
X6.39Y-2.48
X6.765Y-3.5625
X6.765Y-3.6625
X6.765Y-3.7625
X6.765Y-3.8625
X6.865Y-3.5625
X6.865Y-3.6625
X6.865Y-3.7625
X6.865Y-3.8625
T3
X4.495Y-3.385
X4.495Y-4.085
X4.595Y-3.385
X4.595Y-4.085
X4.695Y-3.385
X4.695Y-4.085
X4.795Y-3.385
X4.795Y-4.085
X4.895Y-3.385
X4.895Y-4.085
X4.995Y-3.385
X4.995Y-4.085
X5.095Y-3.385
X5.095Y-4.085
X5.195Y-3.385
X5.195Y-4.085
X5.295Y-3.385
X5.295Y-4.085
X5.395Y-3.385
X5.395Y-4.085
X5.495Y-3.385
X5.495Y-4.085
X5.595Y-3.385
X5.595Y-4.085
X5.695Y-3.385
X5.695Y-4.085
X5.795Y-3.385
X5.795Y-4.085
X5.895Y-3.385
X5.895Y-4.085
X5.995Y-3.385
X5.995Y-4.085
X6.095Y-3.385
X6.095Y-4.085
X6.195Y-3.385
X6.195Y-4.085
X6.295Y-3.385
X6.295Y-4.085
X6.3859Y-3.635
X6.3859Y-3.735
X6.3859Y-3.835
X6.395Y-3.385
X6.395Y-4.085
T4
X6.775Y-2.8425
X6.975Y-2.8425
X7.175Y-2.8425
X7.375Y-2.8425
T0
M30
