%TF.GenerationSoftware,KiCad,Pcbnew,(6.0.1)*%
%TF.CreationDate,2022-03-24T11:58:16-04:00*%
%TF.ProjectId,FDC,4644432e-6b69-4636-9164-5f7063625858,rev?*%
%TF.SameCoordinates,Original*%
%TF.FileFunction,Legend,Bot*%
%TF.FilePolarity,Positive*%
%FSLAX46Y46*%
G04 Gerber Fmt 4.6, Leading zero omitted, Abs format (unit mm)*
G04 Created by KiCad (PCBNEW (6.0.1)) date 2022-03-24 11:58:16*
%MOMM*%
%LPD*%
G01*
G04 APERTURE LIST*
%ADD10C,0.150000*%
%ADD11C,0.120000*%
G04 APERTURE END LIST*
D10*
%TO.C,J3*%
X120780133Y-88415880D02*
X120780133Y-89130166D01*
X120827752Y-89273023D01*
X120922990Y-89368261D01*
X121065847Y-89415880D01*
X121161085Y-89415880D01*
X120399180Y-88415880D02*
X119780133Y-88415880D01*
X120113466Y-88796833D01*
X119970609Y-88796833D01*
X119875371Y-88844452D01*
X119827752Y-88892071D01*
X119780133Y-88987309D01*
X119780133Y-89225404D01*
X119827752Y-89320642D01*
X119875371Y-89368261D01*
X119970609Y-89415880D01*
X120256323Y-89415880D01*
X120351561Y-89368261D01*
X120399180Y-89320642D01*
D11*
X148704000Y-91995500D02*
X143604000Y-91995500D01*
X123204000Y-120695500D02*
X122504000Y-121395500D01*
X119604000Y-114995500D02*
X119604000Y-121395500D01*
X148704000Y-101795500D02*
X148704000Y-91995500D01*
X125104000Y-106895500D02*
X123204000Y-108795500D01*
X137404000Y-91995500D02*
X136864000Y-91995500D01*
X142104000Y-106895500D02*
X144004000Y-108795500D01*
X125104000Y-106895500D02*
X142104000Y-106895500D01*
X148504000Y-121395500D02*
X144704000Y-121395500D01*
X135704000Y-91995500D02*
X135304000Y-91995500D01*
X132404000Y-91995500D02*
X131104000Y-91995500D01*
X144004000Y-120695500D02*
X144004000Y-108795500D01*
X148504000Y-101795500D02*
X148504000Y-110995500D01*
X148504000Y-113795500D02*
X148504000Y-121395500D01*
X123204000Y-120695500D02*
X123204000Y-108795500D01*
X144004000Y-120695500D02*
X144704000Y-121395500D01*
X139904000Y-91995500D02*
X138604000Y-91995500D01*
X119604000Y-121395500D02*
X122504000Y-121395500D01*
X124904000Y-91995500D02*
X124504000Y-91995500D01*
X129904000Y-91995500D02*
X128604000Y-91995500D01*
X119604000Y-91995500D02*
X119604000Y-112195500D01*
X134104000Y-91995500D02*
X133604000Y-91995500D01*
X142404000Y-91995500D02*
X141104000Y-91995500D01*
X127404000Y-91995500D02*
X126204000Y-91995500D01*
X119804000Y-91995500D02*
X119604000Y-91995500D01*
X123204000Y-91995500D02*
X120904000Y-91995500D01*
X148504000Y-101795500D02*
X148704000Y-101795500D01*
%TD*%
M02*
