%TF.GenerationSoftware,KiCad,Pcbnew,(6.0.1)*%
%TF.CreationDate,2022-03-24T11:58:16-04:00*%
%TF.ProjectId,FDC,4644432e-6b69-4636-9164-5f7063625858,rev?*%
%TF.SameCoordinates,Original*%
%TF.FileFunction,Legend,Top*%
%TF.FilePolarity,Positive*%
%FSLAX46Y46*%
G04 Gerber Fmt 4.6, Leading zero omitted, Abs format (unit mm)*
G04 Created by KiCad (PCBNEW (6.0.1)) date 2022-03-24 11:58:16*
%MOMM*%
%LPD*%
G01*
G04 APERTURE LIST*
%ADD10C,0.150000*%
%ADD11C,0.120000*%
G04 APERTURE END LIST*
D10*
%TO.C,U3*%
X159766095Y-65746380D02*
X159766095Y-66555904D01*
X159813714Y-66651142D01*
X159861333Y-66698761D01*
X159956571Y-66746380D01*
X160147047Y-66746380D01*
X160242285Y-66698761D01*
X160289904Y-66651142D01*
X160337523Y-66555904D01*
X160337523Y-65746380D01*
X160718476Y-65746380D02*
X161337523Y-65746380D01*
X161004190Y-66127333D01*
X161147047Y-66127333D01*
X161242285Y-66174952D01*
X161289904Y-66222571D01*
X161337523Y-66317809D01*
X161337523Y-66555904D01*
X161289904Y-66651142D01*
X161242285Y-66698761D01*
X161147047Y-66746380D01*
X160861333Y-66746380D01*
X160766095Y-66698761D01*
X160718476Y-66651142D01*
%TO.C,Q1*%
X114593619Y-68484738D02*
X114546000Y-68579976D01*
X114450761Y-68675214D01*
X114307904Y-68818071D01*
X114260285Y-68913309D01*
X114260285Y-69008547D01*
X114498380Y-68960928D02*
X114450761Y-69056166D01*
X114355523Y-69151404D01*
X114165047Y-69199023D01*
X113831714Y-69199023D01*
X113641238Y-69151404D01*
X113546000Y-69056166D01*
X113498380Y-68960928D01*
X113498380Y-68770452D01*
X113546000Y-68675214D01*
X113641238Y-68579976D01*
X113831714Y-68532357D01*
X114165047Y-68532357D01*
X114355523Y-68579976D01*
X114450761Y-68675214D01*
X114498380Y-68770452D01*
X114498380Y-68960928D01*
X114498380Y-67579976D02*
X114498380Y-68151404D01*
X114498380Y-67865690D02*
X113498380Y-67865690D01*
X113641238Y-67960928D01*
X113736476Y-68056166D01*
X113784095Y-68151404D01*
%TO.C,R6*%
X116482833Y-74746380D02*
X116149500Y-74270190D01*
X115911404Y-74746380D02*
X115911404Y-73746380D01*
X116292357Y-73746380D01*
X116387595Y-73794000D01*
X116435214Y-73841619D01*
X116482833Y-73936857D01*
X116482833Y-74079714D01*
X116435214Y-74174952D01*
X116387595Y-74222571D01*
X116292357Y-74270190D01*
X115911404Y-74270190D01*
X117339976Y-73746380D02*
X117149500Y-73746380D01*
X117054261Y-73794000D01*
X117006642Y-73841619D01*
X116911404Y-73984476D01*
X116863785Y-74174952D01*
X116863785Y-74555904D01*
X116911404Y-74651142D01*
X116959023Y-74698761D01*
X117054261Y-74746380D01*
X117244738Y-74746380D01*
X117339976Y-74698761D01*
X117387595Y-74651142D01*
X117435214Y-74555904D01*
X117435214Y-74317809D01*
X117387595Y-74222571D01*
X117339976Y-74174952D01*
X117244738Y-74127333D01*
X117054261Y-74127333D01*
X116959023Y-74174952D01*
X116911404Y-74222571D01*
X116863785Y-74317809D01*
%TO.C,R8*%
X142073333Y-74238380D02*
X141740000Y-73762190D01*
X141501904Y-74238380D02*
X141501904Y-73238380D01*
X141882857Y-73238380D01*
X141978095Y-73286000D01*
X142025714Y-73333619D01*
X142073333Y-73428857D01*
X142073333Y-73571714D01*
X142025714Y-73666952D01*
X141978095Y-73714571D01*
X141882857Y-73762190D01*
X141501904Y-73762190D01*
X142644761Y-73666952D02*
X142549523Y-73619333D01*
X142501904Y-73571714D01*
X142454285Y-73476476D01*
X142454285Y-73428857D01*
X142501904Y-73333619D01*
X142549523Y-73286000D01*
X142644761Y-73238380D01*
X142835238Y-73238380D01*
X142930476Y-73286000D01*
X142978095Y-73333619D01*
X143025714Y-73428857D01*
X143025714Y-73476476D01*
X142978095Y-73571714D01*
X142930476Y-73619333D01*
X142835238Y-73666952D01*
X142644761Y-73666952D01*
X142549523Y-73714571D01*
X142501904Y-73762190D01*
X142454285Y-73857428D01*
X142454285Y-74047904D01*
X142501904Y-74143142D01*
X142549523Y-74190761D01*
X142644761Y-74238380D01*
X142835238Y-74238380D01*
X142930476Y-74190761D01*
X142978095Y-74143142D01*
X143025714Y-74047904D01*
X143025714Y-73857428D01*
X142978095Y-73762190D01*
X142930476Y-73714571D01*
X142835238Y-73666952D01*
%TO.C,U5*%
X134112095Y-64984380D02*
X134112095Y-65793904D01*
X134159714Y-65889142D01*
X134207333Y-65936761D01*
X134302571Y-65984380D01*
X134493047Y-65984380D01*
X134588285Y-65936761D01*
X134635904Y-65889142D01*
X134683523Y-65793904D01*
X134683523Y-64984380D01*
X135635904Y-64984380D02*
X135159714Y-64984380D01*
X135112095Y-65460571D01*
X135159714Y-65412952D01*
X135254952Y-65365333D01*
X135493047Y-65365333D01*
X135588285Y-65412952D01*
X135635904Y-65460571D01*
X135683523Y-65555809D01*
X135683523Y-65793904D01*
X135635904Y-65889142D01*
X135588285Y-65936761D01*
X135493047Y-65984380D01*
X135254952Y-65984380D01*
X135159714Y-65936761D01*
X135112095Y-65889142D01*
%TO.C,Q2*%
X145264119Y-67659238D02*
X145216500Y-67754476D01*
X145121261Y-67849714D01*
X144978404Y-67992571D01*
X144930785Y-68087809D01*
X144930785Y-68183047D01*
X145168880Y-68135428D02*
X145121261Y-68230666D01*
X145026023Y-68325904D01*
X144835547Y-68373523D01*
X144502214Y-68373523D01*
X144311738Y-68325904D01*
X144216500Y-68230666D01*
X144168880Y-68135428D01*
X144168880Y-67944952D01*
X144216500Y-67849714D01*
X144311738Y-67754476D01*
X144502214Y-67706857D01*
X144835547Y-67706857D01*
X145026023Y-67754476D01*
X145121261Y-67849714D01*
X145168880Y-67944952D01*
X145168880Y-68135428D01*
X144264119Y-67325904D02*
X144216500Y-67278285D01*
X144168880Y-67183047D01*
X144168880Y-66944952D01*
X144216500Y-66849714D01*
X144264119Y-66802095D01*
X144359357Y-66754476D01*
X144454595Y-66754476D01*
X144597452Y-66802095D01*
X145168880Y-67373523D01*
X145168880Y-66754476D01*
%TO.C,R9*%
X164171333Y-72080380D02*
X163838000Y-71604190D01*
X163599904Y-72080380D02*
X163599904Y-71080380D01*
X163980857Y-71080380D01*
X164076095Y-71128000D01*
X164123714Y-71175619D01*
X164171333Y-71270857D01*
X164171333Y-71413714D01*
X164123714Y-71508952D01*
X164076095Y-71556571D01*
X163980857Y-71604190D01*
X163599904Y-71604190D01*
X164647523Y-72080380D02*
X164838000Y-72080380D01*
X164933238Y-72032761D01*
X164980857Y-71985142D01*
X165076095Y-71842285D01*
X165123714Y-71651809D01*
X165123714Y-71270857D01*
X165076095Y-71175619D01*
X165028476Y-71128000D01*
X164933238Y-71080380D01*
X164742761Y-71080380D01*
X164647523Y-71128000D01*
X164599904Y-71175619D01*
X164552285Y-71270857D01*
X164552285Y-71508952D01*
X164599904Y-71604190D01*
X164647523Y-71651809D01*
X164742761Y-71699428D01*
X164933238Y-71699428D01*
X165028476Y-71651809D01*
X165076095Y-71604190D01*
X165123714Y-71508952D01*
%TO.C,R10*%
X163075880Y-79319357D02*
X162599690Y-79652690D01*
X163075880Y-79890785D02*
X162075880Y-79890785D01*
X162075880Y-79509833D01*
X162123500Y-79414595D01*
X162171119Y-79366976D01*
X162266357Y-79319357D01*
X162409214Y-79319357D01*
X162504452Y-79366976D01*
X162552071Y-79414595D01*
X162599690Y-79509833D01*
X162599690Y-79890785D01*
X163075880Y-78366976D02*
X163075880Y-78938404D01*
X163075880Y-78652690D02*
X162075880Y-78652690D01*
X162218738Y-78747928D01*
X162313976Y-78843166D01*
X162361595Y-78938404D01*
X162075880Y-77747928D02*
X162075880Y-77652690D01*
X162123500Y-77557452D01*
X162171119Y-77509833D01*
X162266357Y-77462214D01*
X162456833Y-77414595D01*
X162694928Y-77414595D01*
X162885404Y-77462214D01*
X162980642Y-77509833D01*
X163028261Y-77557452D01*
X163075880Y-77652690D01*
X163075880Y-77747928D01*
X163028261Y-77843166D01*
X162980642Y-77890785D01*
X162885404Y-77938404D01*
X162694928Y-77986023D01*
X162456833Y-77986023D01*
X162266357Y-77938404D01*
X162171119Y-77890785D01*
X162123500Y-77843166D01*
X162075880Y-77747928D01*
%TO.C,C2*%
X164949142Y-78271666D02*
X164996761Y-78319285D01*
X165044380Y-78462142D01*
X165044380Y-78557380D01*
X164996761Y-78700238D01*
X164901523Y-78795476D01*
X164806285Y-78843095D01*
X164615809Y-78890714D01*
X164472952Y-78890714D01*
X164282476Y-78843095D01*
X164187238Y-78795476D01*
X164092000Y-78700238D01*
X164044380Y-78557380D01*
X164044380Y-78462142D01*
X164092000Y-78319285D01*
X164139619Y-78271666D01*
X164139619Y-77890714D02*
X164092000Y-77843095D01*
X164044380Y-77747857D01*
X164044380Y-77509761D01*
X164092000Y-77414523D01*
X164139619Y-77366904D01*
X164234857Y-77319285D01*
X164330095Y-77319285D01*
X164472952Y-77366904D01*
X165044380Y-77938333D01*
X165044380Y-77319285D01*
%TO.C,C3*%
X162075833Y-71858142D02*
X162028214Y-71905761D01*
X161885357Y-71953380D01*
X161790119Y-71953380D01*
X161647261Y-71905761D01*
X161552023Y-71810523D01*
X161504404Y-71715285D01*
X161456785Y-71524809D01*
X161456785Y-71381952D01*
X161504404Y-71191476D01*
X161552023Y-71096238D01*
X161647261Y-71001000D01*
X161790119Y-70953380D01*
X161885357Y-70953380D01*
X162028214Y-71001000D01*
X162075833Y-71048619D01*
X162409166Y-70953380D02*
X163028214Y-70953380D01*
X162694880Y-71334333D01*
X162837738Y-71334333D01*
X162932976Y-71381952D01*
X162980595Y-71429571D01*
X163028214Y-71524809D01*
X163028214Y-71762904D01*
X162980595Y-71858142D01*
X162932976Y-71905761D01*
X162837738Y-71953380D01*
X162552023Y-71953380D01*
X162456785Y-71905761D01*
X162409166Y-71858142D01*
%TO.C,C5*%
X138406142Y-76938166D02*
X138453761Y-76985785D01*
X138501380Y-77128642D01*
X138501380Y-77223880D01*
X138453761Y-77366738D01*
X138358523Y-77461976D01*
X138263285Y-77509595D01*
X138072809Y-77557214D01*
X137929952Y-77557214D01*
X137739476Y-77509595D01*
X137644238Y-77461976D01*
X137549000Y-77366738D01*
X137501380Y-77223880D01*
X137501380Y-77128642D01*
X137549000Y-76985785D01*
X137596619Y-76938166D01*
X137501380Y-76033404D02*
X137501380Y-76509595D01*
X137977571Y-76557214D01*
X137929952Y-76509595D01*
X137882333Y-76414357D01*
X137882333Y-76176261D01*
X137929952Y-76081023D01*
X137977571Y-76033404D01*
X138072809Y-75985785D01*
X138310904Y-75985785D01*
X138406142Y-76033404D01*
X138453761Y-76081023D01*
X138501380Y-76176261D01*
X138501380Y-76414357D01*
X138453761Y-76509595D01*
X138406142Y-76557214D01*
%TO.C,C6*%
X138439142Y-68492666D02*
X138486761Y-68540285D01*
X138534380Y-68683142D01*
X138534380Y-68778380D01*
X138486761Y-68921238D01*
X138391523Y-69016476D01*
X138296285Y-69064095D01*
X138105809Y-69111714D01*
X137962952Y-69111714D01*
X137772476Y-69064095D01*
X137677238Y-69016476D01*
X137582000Y-68921238D01*
X137534380Y-68778380D01*
X137534380Y-68683142D01*
X137582000Y-68540285D01*
X137629619Y-68492666D01*
X137534380Y-67635523D02*
X137534380Y-67826000D01*
X137582000Y-67921238D01*
X137629619Y-67968857D01*
X137772476Y-68064095D01*
X137962952Y-68111714D01*
X138343904Y-68111714D01*
X138439142Y-68064095D01*
X138486761Y-68016476D01*
X138534380Y-67921238D01*
X138534380Y-67730761D01*
X138486761Y-67635523D01*
X138439142Y-67587904D01*
X138343904Y-67540285D01*
X138105809Y-67540285D01*
X138010571Y-67587904D01*
X137962952Y-67635523D01*
X137915333Y-67730761D01*
X137915333Y-67921238D01*
X137962952Y-68016476D01*
X138010571Y-68064095D01*
X138105809Y-68111714D01*
%TO.C,D2*%
X137612380Y-73128095D02*
X136612380Y-73128095D01*
X136612380Y-72890000D01*
X136660000Y-72747142D01*
X136755238Y-72651904D01*
X136850476Y-72604285D01*
X137040952Y-72556666D01*
X137183809Y-72556666D01*
X137374285Y-72604285D01*
X137469523Y-72651904D01*
X137564761Y-72747142D01*
X137612380Y-72890000D01*
X137612380Y-73128095D01*
X136707619Y-72175714D02*
X136660000Y-72128095D01*
X136612380Y-72032857D01*
X136612380Y-71794761D01*
X136660000Y-71699523D01*
X136707619Y-71651904D01*
X136802857Y-71604285D01*
X136898095Y-71604285D01*
X137040952Y-71651904D01*
X137612380Y-72223333D01*
X137612380Y-71604285D01*
%TO.C,J5*%
X164088380Y-62055333D02*
X164802666Y-62055333D01*
X164945523Y-62102952D01*
X165040761Y-62198190D01*
X165088380Y-62341047D01*
X165088380Y-62436285D01*
X164088380Y-61102952D02*
X164088380Y-61579142D01*
X164564571Y-61626761D01*
X164516952Y-61579142D01*
X164469333Y-61483904D01*
X164469333Y-61245809D01*
X164516952Y-61150571D01*
X164564571Y-61102952D01*
X164659809Y-61055333D01*
X164897904Y-61055333D01*
X164993142Y-61102952D01*
X165040761Y-61150571D01*
X165088380Y-61245809D01*
X165088380Y-61483904D01*
X165040761Y-61579142D01*
X164993142Y-61626761D01*
%TO.C,J1*%
X172767666Y-103659880D02*
X172767666Y-104374166D01*
X172720047Y-104517023D01*
X172624809Y-104612261D01*
X172481952Y-104659880D01*
X172386714Y-104659880D01*
X173767666Y-104659880D02*
X173196238Y-104659880D01*
X173481952Y-104659880D02*
X173481952Y-103659880D01*
X173386714Y-103802738D01*
X173291476Y-103897976D01*
X173196238Y-103945595D01*
%TO.C,J4*%
X189404666Y-78255880D02*
X189404666Y-78970166D01*
X189357047Y-79113023D01*
X189261809Y-79208261D01*
X189118952Y-79255880D01*
X189023714Y-79255880D01*
X190309428Y-78589214D02*
X190309428Y-79255880D01*
X190071333Y-78208261D02*
X189833238Y-78922547D01*
X190452285Y-78922547D01*
%TO.C,U2*%
X164679380Y-86232904D02*
X165488904Y-86232904D01*
X165584142Y-86185285D01*
X165631761Y-86137666D01*
X165679380Y-86042428D01*
X165679380Y-85851952D01*
X165631761Y-85756714D01*
X165584142Y-85709095D01*
X165488904Y-85661476D01*
X164679380Y-85661476D01*
X164774619Y-85232904D02*
X164727000Y-85185285D01*
X164679380Y-85090047D01*
X164679380Y-84851952D01*
X164727000Y-84756714D01*
X164774619Y-84709095D01*
X164869857Y-84661476D01*
X164965095Y-84661476D01*
X165107952Y-84709095D01*
X165679380Y-85280523D01*
X165679380Y-84661476D01*
X144801155Y-82782841D02*
X144828093Y-82863653D01*
X144908905Y-82944465D01*
X145016654Y-82998340D01*
X145124404Y-82998340D01*
X145205216Y-82971402D01*
X145339903Y-82890590D01*
X145420715Y-82809778D01*
X145501528Y-82675091D01*
X145528465Y-82594279D01*
X145528465Y-82486529D01*
X145474590Y-82378780D01*
X145420715Y-82324905D01*
X145312966Y-82271030D01*
X145259091Y-82271030D01*
X145070529Y-82459592D01*
X145178279Y-82567341D01*
X145070529Y-81974719D02*
X144504844Y-82540404D01*
X144747280Y-81651470D01*
X144181595Y-82217155D01*
X144477906Y-81382096D02*
X143912221Y-81947781D01*
X143777534Y-81813094D01*
X143723659Y-81705345D01*
X143723659Y-81597595D01*
X143750597Y-81516783D01*
X143831409Y-81382096D01*
X143912221Y-81301284D01*
X144046908Y-81220471D01*
X144127720Y-81193534D01*
X144235470Y-81193534D01*
X144343219Y-81247409D01*
X144477906Y-81382096D01*
X114830309Y-82915870D02*
X115207433Y-82161622D01*
X114453186Y-82538746D01*
X114345436Y-81892248D02*
X114291561Y-81784499D01*
X114291561Y-81730624D01*
X114318499Y-81649812D01*
X114399311Y-81569000D01*
X114480123Y-81542062D01*
X114533998Y-81542062D01*
X114614810Y-81569000D01*
X114830309Y-81784499D01*
X114264624Y-82350184D01*
X114076062Y-82161622D01*
X114049125Y-82080810D01*
X114049125Y-82026935D01*
X114076062Y-81946123D01*
X114129937Y-81892248D01*
X114210749Y-81865311D01*
X114264624Y-81865311D01*
X114345436Y-81892248D01*
X114533998Y-82080810D01*
X113698938Y-81784499D02*
X114156874Y-81326563D01*
X114183812Y-81245751D01*
X114183812Y-81191876D01*
X114156874Y-81111064D01*
X114049125Y-81003314D01*
X113968312Y-80976377D01*
X113914438Y-80976377D01*
X113833625Y-81003314D01*
X113375690Y-81461250D01*
X113672001Y-80680065D02*
X113618126Y-80572316D01*
X113483439Y-80437629D01*
X113402627Y-80410691D01*
X113348752Y-80410691D01*
X113267940Y-80437629D01*
X113214065Y-80491503D01*
X113187128Y-80572316D01*
X113187128Y-80626190D01*
X113214065Y-80707003D01*
X113294877Y-80841690D01*
X113321815Y-80922502D01*
X113321815Y-80976377D01*
X113294877Y-81057189D01*
X113241003Y-81111064D01*
X113160190Y-81138001D01*
X113106316Y-81138001D01*
X113025503Y-81111064D01*
X112890816Y-80976377D01*
X112836942Y-80868627D01*
X162823592Y-108879277D02*
X162850529Y-108960089D01*
X162931341Y-109040902D01*
X163039091Y-109094776D01*
X163146841Y-109094776D01*
X163227653Y-109067839D01*
X163362340Y-108987027D01*
X163443152Y-108906215D01*
X163523964Y-108771528D01*
X163550902Y-108690715D01*
X163550902Y-108582966D01*
X163497027Y-108475216D01*
X163443152Y-108421341D01*
X163335402Y-108367467D01*
X163281528Y-108367467D01*
X163092966Y-108556028D01*
X163200715Y-108663778D01*
X163092966Y-108071155D02*
X162527280Y-108636841D01*
X162311781Y-108421341D01*
X162284844Y-108340529D01*
X162284844Y-108286654D01*
X162311781Y-108205842D01*
X162392593Y-108125030D01*
X162473406Y-108098093D01*
X162527280Y-108098093D01*
X162608093Y-108125030D01*
X162823592Y-108340529D01*
X162230969Y-107209158D02*
X162554218Y-107532407D01*
X162392593Y-107370783D02*
X161826908Y-107936468D01*
X161961595Y-107909531D01*
X162069345Y-107909531D01*
X162150157Y-107936468D01*
X161153473Y-107263033D02*
X161422847Y-107532407D01*
X161719158Y-107289971D01*
X161665284Y-107289971D01*
X161584471Y-107263033D01*
X161449784Y-107128346D01*
X161422847Y-107047534D01*
X161422847Y-106993659D01*
X161449784Y-106912847D01*
X161584471Y-106778160D01*
X161665284Y-106751223D01*
X161719158Y-106751223D01*
X161799971Y-106778160D01*
X161934658Y-106912847D01*
X161961595Y-106993659D01*
X161961595Y-107047534D01*
X164826809Y-90964238D02*
X164864904Y-90849952D01*
X164864904Y-90659476D01*
X164826809Y-90583285D01*
X164788714Y-90545190D01*
X164712523Y-90507095D01*
X164636333Y-90507095D01*
X164560142Y-90545190D01*
X164522047Y-90583285D01*
X164483952Y-90659476D01*
X164445857Y-90811857D01*
X164407761Y-90888047D01*
X164369666Y-90926142D01*
X164293476Y-90964238D01*
X164217285Y-90964238D01*
X164141095Y-90926142D01*
X164103000Y-90888047D01*
X164064904Y-90811857D01*
X164064904Y-90621380D01*
X164103000Y-90507095D01*
X164064904Y-90240428D02*
X164864904Y-90049952D01*
X164293476Y-89897571D01*
X164864904Y-89745190D01*
X164064904Y-89554714D01*
X164864904Y-89249952D02*
X164064904Y-89249952D01*
X164064904Y-89059476D01*
X164103000Y-88945190D01*
X164179190Y-88869000D01*
X164255380Y-88830904D01*
X164407761Y-88792809D01*
X164522047Y-88792809D01*
X164674428Y-88830904D01*
X164750619Y-88869000D01*
X164826809Y-88945190D01*
X164864904Y-89059476D01*
X164864904Y-89249952D01*
X164864904Y-88449952D02*
X164064904Y-88449952D01*
X164064904Y-87916619D02*
X164064904Y-87764238D01*
X164103000Y-87688047D01*
X164179190Y-87611857D01*
X164331571Y-87573761D01*
X164598238Y-87573761D01*
X164750619Y-87611857D01*
X164826809Y-87688047D01*
X164864904Y-87764238D01*
X164864904Y-87916619D01*
X164826809Y-87992809D01*
X164750619Y-88069000D01*
X164598238Y-88107095D01*
X164331571Y-88107095D01*
X164179190Y-88069000D01*
X164103000Y-87992809D01*
X164064904Y-87916619D01*
X134614218Y-108355903D02*
X134641155Y-108436715D01*
X134721967Y-108517528D01*
X134829717Y-108571402D01*
X134937467Y-108571402D01*
X135018279Y-108544465D01*
X135152966Y-108463653D01*
X135233778Y-108382841D01*
X135314590Y-108248154D01*
X135341528Y-108167341D01*
X135341528Y-108059592D01*
X135287653Y-107951842D01*
X135233778Y-107897967D01*
X135126028Y-107844093D01*
X135072154Y-107844093D01*
X134883592Y-108032654D01*
X134991341Y-108140404D01*
X134883592Y-107547781D02*
X134317906Y-108113467D01*
X134102407Y-107897967D01*
X134075470Y-107817155D01*
X134075470Y-107763280D01*
X134102407Y-107682468D01*
X134183219Y-107601656D01*
X134264032Y-107574719D01*
X134317906Y-107574719D01*
X134398719Y-107601656D01*
X134614218Y-107817155D01*
X133509784Y-107305345D02*
X133617534Y-107413094D01*
X133698346Y-107440032D01*
X133752221Y-107440032D01*
X133886908Y-107413094D01*
X134021595Y-107332282D01*
X134237094Y-107116783D01*
X134264032Y-107035971D01*
X134264032Y-106982096D01*
X134237094Y-106901284D01*
X134129345Y-106793534D01*
X134048532Y-106766597D01*
X133994658Y-106766597D01*
X133913845Y-106793534D01*
X133779158Y-106928221D01*
X133752221Y-107009033D01*
X133752221Y-107062908D01*
X133779158Y-107143720D01*
X133886908Y-107251470D01*
X133967720Y-107278407D01*
X134021595Y-107278407D01*
X134102407Y-107251470D01*
X129549592Y-82771277D02*
X129576529Y-82852089D01*
X129657341Y-82932902D01*
X129765091Y-82986776D01*
X129872841Y-82986776D01*
X129953653Y-82959839D01*
X130088340Y-82879027D01*
X130169152Y-82798215D01*
X130249964Y-82663528D01*
X130276902Y-82582715D01*
X130276902Y-82474966D01*
X130223027Y-82367216D01*
X130169152Y-82313341D01*
X130061402Y-82259467D01*
X130007528Y-82259467D01*
X129818966Y-82448028D01*
X129926715Y-82555778D01*
X129818966Y-81963155D02*
X129253280Y-82528841D01*
X129037781Y-82313341D01*
X129010844Y-82232529D01*
X129010844Y-82178654D01*
X129037781Y-82097842D01*
X129118593Y-82017030D01*
X129199406Y-81990093D01*
X129253280Y-81990093D01*
X129334093Y-82017030D01*
X129549592Y-82232529D01*
X128768407Y-81936218D02*
X128714532Y-81936218D01*
X128633720Y-81909280D01*
X128499033Y-81774593D01*
X128472096Y-81693781D01*
X128472096Y-81639906D01*
X128499033Y-81559094D01*
X128552908Y-81505219D01*
X128660658Y-81451345D01*
X129307155Y-81451345D01*
X128956969Y-81101158D01*
X128310471Y-81101158D02*
X128337409Y-81181971D01*
X128337409Y-81235845D01*
X128310471Y-81316658D01*
X128283534Y-81343595D01*
X128202722Y-81370532D01*
X128148847Y-81370532D01*
X128068035Y-81343595D01*
X127960285Y-81235845D01*
X127933348Y-81155033D01*
X127933348Y-81101158D01*
X127960285Y-81020346D01*
X127987223Y-80993409D01*
X128068035Y-80966471D01*
X128121910Y-80966471D01*
X128202722Y-80993409D01*
X128310471Y-81101158D01*
X128391284Y-81128096D01*
X128445158Y-81128096D01*
X128525971Y-81101158D01*
X128633720Y-80993409D01*
X128660658Y-80912597D01*
X128660658Y-80858722D01*
X128633720Y-80777910D01*
X128525971Y-80670160D01*
X128445158Y-80643223D01*
X128391284Y-80643223D01*
X128310471Y-80670160D01*
X128202722Y-80777910D01*
X128175784Y-80858722D01*
X128175784Y-80912597D01*
X128202722Y-80993409D01*
X164826809Y-102378523D02*
X164864904Y-102264238D01*
X164864904Y-102073761D01*
X164826809Y-101997571D01*
X164788714Y-101959476D01*
X164712523Y-101921380D01*
X164636333Y-101921380D01*
X164560142Y-101959476D01*
X164522047Y-101997571D01*
X164483952Y-102073761D01*
X164445857Y-102226142D01*
X164407761Y-102302333D01*
X164369666Y-102340428D01*
X164293476Y-102378523D01*
X164217285Y-102378523D01*
X164141095Y-102340428D01*
X164103000Y-102302333D01*
X164064904Y-102226142D01*
X164064904Y-102035666D01*
X164103000Y-101921380D01*
X164064904Y-101654714D02*
X164864904Y-101464238D01*
X164293476Y-101311857D01*
X164864904Y-101159476D01*
X164064904Y-100969000D01*
X164788714Y-100207095D02*
X164826809Y-100245190D01*
X164864904Y-100359476D01*
X164864904Y-100435666D01*
X164826809Y-100549952D01*
X164750619Y-100626142D01*
X164674428Y-100664238D01*
X164522047Y-100702333D01*
X164407761Y-100702333D01*
X164255380Y-100664238D01*
X164179190Y-100626142D01*
X164103000Y-100549952D01*
X164064904Y-100435666D01*
X164064904Y-100359476D01*
X164103000Y-100245190D01*
X164141095Y-100207095D01*
X164864904Y-99483285D02*
X164864904Y-99864238D01*
X164064904Y-99864238D01*
X164864904Y-99216619D02*
X164064904Y-99216619D01*
X164864904Y-98759476D02*
X164407761Y-99102333D01*
X164064904Y-98759476D02*
X164522047Y-99216619D01*
X122261308Y-82946868D02*
X121911122Y-82596682D01*
X122315183Y-82569744D01*
X122234370Y-82488932D01*
X122207433Y-82408120D01*
X122207433Y-82354245D01*
X122234370Y-82273433D01*
X122369057Y-82138746D01*
X122449870Y-82111809D01*
X122503744Y-82111809D01*
X122584557Y-82138746D01*
X122746181Y-82300370D01*
X122773118Y-82381183D01*
X122773118Y-82435057D01*
X121749497Y-82435057D02*
X122126621Y-81680810D01*
X121372374Y-82057934D01*
X121237687Y-81923247D02*
X120887500Y-81573061D01*
X121291561Y-81546123D01*
X121210749Y-81465311D01*
X121183812Y-81384499D01*
X121183812Y-81330624D01*
X121210749Y-81249812D01*
X121345436Y-81115125D01*
X121426248Y-81088187D01*
X121480123Y-81088187D01*
X121560935Y-81115125D01*
X121722560Y-81276749D01*
X121749497Y-81357561D01*
X121749497Y-81411436D01*
X121399311Y-80845751D02*
X120968312Y-80414752D01*
X120483439Y-80630251D02*
X120294877Y-80441690D01*
X120510377Y-80064566D02*
X120779751Y-80333940D01*
X120214065Y-80899625D01*
X119944691Y-80630251D01*
X120267940Y-79822129D02*
X119702255Y-80387815D01*
X119944691Y-79498881D01*
X119379006Y-80064566D01*
X147583592Y-108879277D02*
X147610529Y-108960089D01*
X147691341Y-109040902D01*
X147799091Y-109094776D01*
X147906841Y-109094776D01*
X147987653Y-109067839D01*
X148122340Y-108987027D01*
X148203152Y-108906215D01*
X148283964Y-108771528D01*
X148310902Y-108690715D01*
X148310902Y-108582966D01*
X148257027Y-108475216D01*
X148203152Y-108421341D01*
X148095402Y-108367467D01*
X148041528Y-108367467D01*
X147852966Y-108556028D01*
X147960715Y-108663778D01*
X147852966Y-108071155D02*
X147287280Y-108636841D01*
X147071781Y-108421341D01*
X147044844Y-108340529D01*
X147044844Y-108286654D01*
X147071781Y-108205842D01*
X147152593Y-108125030D01*
X147233406Y-108098093D01*
X147287280Y-108098093D01*
X147368093Y-108125030D01*
X147583592Y-108340529D01*
X146990969Y-107209158D02*
X147314218Y-107532407D01*
X147152593Y-107370783D02*
X146586908Y-107936468D01*
X146721595Y-107909531D01*
X146829345Y-107909531D01*
X146910157Y-107936468D01*
X146075097Y-107424658D02*
X146021223Y-107370783D01*
X145994285Y-107289971D01*
X145994285Y-107236096D01*
X146021223Y-107155284D01*
X146102035Y-107020597D01*
X146236722Y-106885910D01*
X146371409Y-106805097D01*
X146452221Y-106778160D01*
X146506096Y-106778160D01*
X146586908Y-106805097D01*
X146640783Y-106858972D01*
X146667720Y-106939784D01*
X146667720Y-106993659D01*
X146640783Y-107074471D01*
X146559971Y-107209158D01*
X146425284Y-107343845D01*
X146290597Y-107424658D01*
X146209784Y-107451595D01*
X146155910Y-107451595D01*
X146075097Y-107424658D01*
X140246435Y-82030624D02*
X140165622Y-82488560D01*
X140569683Y-82353873D02*
X140003998Y-82919558D01*
X139788499Y-82704059D01*
X139761561Y-82623247D01*
X139761561Y-82569372D01*
X139788499Y-82488560D01*
X139869311Y-82407748D01*
X139950123Y-82380810D01*
X140003998Y-82380810D01*
X140084810Y-82407748D01*
X140300309Y-82623247D01*
X139438312Y-82353873D02*
X139896248Y-81895937D01*
X139923186Y-81815125D01*
X139923186Y-81761250D01*
X139896248Y-81680438D01*
X139788499Y-81572688D01*
X139707687Y-81545751D01*
X139653812Y-81545751D01*
X139573000Y-81572688D01*
X139115064Y-82030624D01*
X139411375Y-81195564D02*
X138845690Y-81761250D01*
X139088126Y-80872316D01*
X138522441Y-81438001D01*
X137423592Y-82771277D02*
X137450529Y-82852089D01*
X137531341Y-82932902D01*
X137639091Y-82986776D01*
X137746841Y-82986776D01*
X137827653Y-82959839D01*
X137962340Y-82879027D01*
X138043152Y-82798215D01*
X138123964Y-82663528D01*
X138150902Y-82582715D01*
X138150902Y-82474966D01*
X138097027Y-82367216D01*
X138043152Y-82313341D01*
X137935402Y-82259467D01*
X137881528Y-82259467D01*
X137692966Y-82448028D01*
X137800715Y-82555778D01*
X137692966Y-81963155D02*
X137127280Y-82528841D01*
X136911781Y-82313341D01*
X136884844Y-82232529D01*
X136884844Y-82178654D01*
X136911781Y-82097842D01*
X136992593Y-82017030D01*
X137073406Y-81990093D01*
X137127280Y-81990093D01*
X137208093Y-82017030D01*
X137423592Y-82232529D01*
X136642407Y-81936218D02*
X136588532Y-81936218D01*
X136507720Y-81909280D01*
X136373033Y-81774593D01*
X136346096Y-81693781D01*
X136346096Y-81639906D01*
X136373033Y-81559094D01*
X136426908Y-81505219D01*
X136534658Y-81451345D01*
X137181155Y-81451345D01*
X136830969Y-81101158D01*
X135780410Y-81181971D02*
X135888160Y-81289720D01*
X135968972Y-81316658D01*
X136022847Y-81316658D01*
X136157534Y-81289720D01*
X136292221Y-81208908D01*
X136507720Y-80993409D01*
X136534658Y-80912597D01*
X136534658Y-80858722D01*
X136507720Y-80777910D01*
X136399971Y-80670160D01*
X136319158Y-80643223D01*
X136265284Y-80643223D01*
X136184471Y-80670160D01*
X136049784Y-80804847D01*
X136022847Y-80885659D01*
X136022847Y-80939534D01*
X136049784Y-81020346D01*
X136157534Y-81128096D01*
X136238346Y-81155033D01*
X136292221Y-81155033D01*
X136373033Y-81128096D01*
X119401155Y-82782841D02*
X119428093Y-82863653D01*
X119508905Y-82944465D01*
X119616654Y-82998340D01*
X119724404Y-82998340D01*
X119805216Y-82971402D01*
X119939903Y-82890590D01*
X120020715Y-82809778D01*
X120101528Y-82675091D01*
X120128465Y-82594279D01*
X120128465Y-82486529D01*
X120074590Y-82378780D01*
X120020715Y-82324905D01*
X119912966Y-82271030D01*
X119859091Y-82271030D01*
X119670529Y-82459592D01*
X119778279Y-82567341D01*
X119670529Y-81974719D02*
X119104844Y-82540404D01*
X119347280Y-81651470D01*
X118781595Y-82217155D01*
X119077906Y-81382096D02*
X118512221Y-81947781D01*
X118377534Y-81813094D01*
X118323659Y-81705345D01*
X118323659Y-81597595D01*
X118350597Y-81516783D01*
X118431409Y-81382096D01*
X118512221Y-81301284D01*
X118646908Y-81220471D01*
X118727720Y-81193534D01*
X118835470Y-81193534D01*
X118943219Y-81247409D01*
X119077906Y-81382096D01*
X150123592Y-109025277D02*
X150150529Y-109106089D01*
X150231341Y-109186902D01*
X150339091Y-109240776D01*
X150446841Y-109240776D01*
X150527653Y-109213839D01*
X150662340Y-109133027D01*
X150743152Y-109052215D01*
X150823964Y-108917528D01*
X150850902Y-108836715D01*
X150850902Y-108728966D01*
X150797027Y-108621216D01*
X150743152Y-108567341D01*
X150635402Y-108513467D01*
X150581528Y-108513467D01*
X150392966Y-108702028D01*
X150500715Y-108809778D01*
X150392966Y-108217155D02*
X149827280Y-108782841D01*
X149611781Y-108567341D01*
X149584844Y-108486529D01*
X149584844Y-108432654D01*
X149611781Y-108351842D01*
X149692593Y-108271030D01*
X149773406Y-108244093D01*
X149827280Y-108244093D01*
X149908093Y-108271030D01*
X150123592Y-108486529D01*
X149530969Y-107355158D02*
X149854218Y-107678407D01*
X149692593Y-107516783D02*
X149126908Y-108082468D01*
X149261595Y-108055531D01*
X149369345Y-108055531D01*
X149450157Y-108082468D01*
X148992221Y-106816410D02*
X149315470Y-107139659D01*
X149153845Y-106978035D02*
X148588160Y-107543720D01*
X148722847Y-107516783D01*
X148830597Y-107516783D01*
X148911409Y-107543720D01*
X144801155Y-108382841D02*
X144828093Y-108463653D01*
X144908905Y-108544465D01*
X145016654Y-108598340D01*
X145124404Y-108598340D01*
X145205216Y-108571402D01*
X145339903Y-108490590D01*
X145420715Y-108409778D01*
X145501528Y-108275091D01*
X145528465Y-108194279D01*
X145528465Y-108086529D01*
X145474590Y-107978780D01*
X145420715Y-107924905D01*
X145312966Y-107871030D01*
X145259091Y-107871030D01*
X145070529Y-108059592D01*
X145178279Y-108167341D01*
X145070529Y-107574719D02*
X144504844Y-108140404D01*
X144747280Y-107251470D01*
X144181595Y-107817155D01*
X144477906Y-106982096D02*
X143912221Y-107547781D01*
X143777534Y-107413094D01*
X143723659Y-107305345D01*
X143723659Y-107197595D01*
X143750597Y-107116783D01*
X143831409Y-106982096D01*
X143912221Y-106901284D01*
X144046908Y-106820471D01*
X144127720Y-106793534D01*
X144235470Y-106793534D01*
X144343219Y-106847409D01*
X144477906Y-106982096D01*
X134893592Y-82771277D02*
X134920529Y-82852089D01*
X135001341Y-82932902D01*
X135109091Y-82986776D01*
X135216841Y-82986776D01*
X135297653Y-82959839D01*
X135432340Y-82879027D01*
X135513152Y-82798215D01*
X135593964Y-82663528D01*
X135620902Y-82582715D01*
X135620902Y-82474966D01*
X135567027Y-82367216D01*
X135513152Y-82313341D01*
X135405402Y-82259467D01*
X135351528Y-82259467D01*
X135162966Y-82448028D01*
X135270715Y-82555778D01*
X135162966Y-81963155D02*
X134597280Y-82528841D01*
X134381781Y-82313341D01*
X134354844Y-82232529D01*
X134354844Y-82178654D01*
X134381781Y-82097842D01*
X134462593Y-82017030D01*
X134543406Y-81990093D01*
X134597280Y-81990093D01*
X134678093Y-82017030D01*
X134893592Y-82232529D01*
X134112407Y-81936218D02*
X134058532Y-81936218D01*
X133977720Y-81909280D01*
X133843033Y-81774593D01*
X133816096Y-81693781D01*
X133816096Y-81639906D01*
X133843033Y-81559094D01*
X133896908Y-81505219D01*
X134004658Y-81451345D01*
X134651155Y-81451345D01*
X134300969Y-81101158D01*
X133546722Y-81478282D02*
X133169598Y-81101158D01*
X133977720Y-80777910D01*
X152663592Y-82771277D02*
X152690529Y-82852089D01*
X152771341Y-82932902D01*
X152879091Y-82986776D01*
X152986841Y-82986776D01*
X153067653Y-82959839D01*
X153202340Y-82879027D01*
X153283152Y-82798215D01*
X153363964Y-82663528D01*
X153390902Y-82582715D01*
X153390902Y-82474966D01*
X153337027Y-82367216D01*
X153283152Y-82313341D01*
X153175402Y-82259467D01*
X153121528Y-82259467D01*
X152932966Y-82448028D01*
X153040715Y-82555778D01*
X152932966Y-81963155D02*
X152367280Y-82528841D01*
X152151781Y-82313341D01*
X152124844Y-82232529D01*
X152124844Y-82178654D01*
X152151781Y-82097842D01*
X152232593Y-82017030D01*
X152313406Y-81990093D01*
X152367280Y-81990093D01*
X152448093Y-82017030D01*
X152663592Y-82232529D01*
X152070969Y-81101158D02*
X152394218Y-81424407D01*
X152232593Y-81262783D02*
X151666908Y-81828468D01*
X151801595Y-81801531D01*
X151909345Y-81801531D01*
X151990157Y-81828468D01*
X151801595Y-80831784D02*
X151693845Y-80724035D01*
X151613033Y-80697097D01*
X151559158Y-80697097D01*
X151424471Y-80724035D01*
X151289784Y-80804847D01*
X151074285Y-81020346D01*
X151047348Y-81101158D01*
X151047348Y-81155033D01*
X151074285Y-81235845D01*
X151182035Y-81343595D01*
X151262847Y-81370532D01*
X151316722Y-81370532D01*
X151397534Y-81343595D01*
X151532221Y-81208908D01*
X151559158Y-81128096D01*
X151559158Y-81074221D01*
X151532221Y-80993409D01*
X151424471Y-80885659D01*
X151343659Y-80858722D01*
X151289784Y-80858722D01*
X151208972Y-80885659D01*
X157501155Y-108382841D02*
X157528093Y-108463653D01*
X157608905Y-108544465D01*
X157716654Y-108598340D01*
X157824404Y-108598340D01*
X157905216Y-108571402D01*
X158039903Y-108490590D01*
X158120715Y-108409778D01*
X158201528Y-108275091D01*
X158228465Y-108194279D01*
X158228465Y-108086529D01*
X158174590Y-107978780D01*
X158120715Y-107924905D01*
X158012966Y-107871030D01*
X157959091Y-107871030D01*
X157770529Y-108059592D01*
X157878279Y-108167341D01*
X157770529Y-107574719D02*
X157204844Y-108140404D01*
X157447280Y-107251470D01*
X156881595Y-107817155D01*
X157177906Y-106982096D02*
X156612221Y-107547781D01*
X156477534Y-107413094D01*
X156423659Y-107305345D01*
X156423659Y-107197595D01*
X156450597Y-107116783D01*
X156531409Y-106982096D01*
X156612221Y-106901284D01*
X156746908Y-106820471D01*
X156827720Y-106793534D01*
X156935470Y-106793534D01*
X157043219Y-106847409D01*
X157177906Y-106982096D01*
X155203592Y-108879277D02*
X155230529Y-108960089D01*
X155311341Y-109040902D01*
X155419091Y-109094776D01*
X155526841Y-109094776D01*
X155607653Y-109067839D01*
X155742340Y-108987027D01*
X155823152Y-108906215D01*
X155903964Y-108771528D01*
X155930902Y-108690715D01*
X155930902Y-108582966D01*
X155877027Y-108475216D01*
X155823152Y-108421341D01*
X155715402Y-108367467D01*
X155661528Y-108367467D01*
X155472966Y-108556028D01*
X155580715Y-108663778D01*
X155472966Y-108071155D02*
X154907280Y-108636841D01*
X154691781Y-108421341D01*
X154664844Y-108340529D01*
X154664844Y-108286654D01*
X154691781Y-108205842D01*
X154772593Y-108125030D01*
X154853406Y-108098093D01*
X154907280Y-108098093D01*
X154988093Y-108125030D01*
X155203592Y-108340529D01*
X154610969Y-107209158D02*
X154934218Y-107532407D01*
X154772593Y-107370783D02*
X154206908Y-107936468D01*
X154341595Y-107909531D01*
X154449345Y-107909531D01*
X154530157Y-107936468D01*
X153856722Y-107586282D02*
X153506536Y-107236096D01*
X153910597Y-107209158D01*
X153829784Y-107128346D01*
X153802847Y-107047534D01*
X153802847Y-106993659D01*
X153829784Y-106912847D01*
X153964471Y-106778160D01*
X154045284Y-106751223D01*
X154099158Y-106751223D01*
X154179971Y-106778160D01*
X154341595Y-106939784D01*
X154368532Y-107020597D01*
X154368532Y-107074471D01*
X155203592Y-82771277D02*
X155230529Y-82852089D01*
X155311341Y-82932902D01*
X155419091Y-82986776D01*
X155526841Y-82986776D01*
X155607653Y-82959839D01*
X155742340Y-82879027D01*
X155823152Y-82798215D01*
X155903964Y-82663528D01*
X155930902Y-82582715D01*
X155930902Y-82474966D01*
X155877027Y-82367216D01*
X155823152Y-82313341D01*
X155715402Y-82259467D01*
X155661528Y-82259467D01*
X155472966Y-82448028D01*
X155580715Y-82555778D01*
X155472966Y-81963155D02*
X154907280Y-82528841D01*
X154691781Y-82313341D01*
X154664844Y-82232529D01*
X154664844Y-82178654D01*
X154691781Y-82097842D01*
X154772593Y-82017030D01*
X154853406Y-81990093D01*
X154907280Y-81990093D01*
X154988093Y-82017030D01*
X155203592Y-82232529D01*
X154610969Y-81101158D02*
X154934218Y-81424407D01*
X154772593Y-81262783D02*
X154206908Y-81828468D01*
X154341595Y-81801531D01*
X154449345Y-81801531D01*
X154530157Y-81828468D01*
X153964471Y-81101158D02*
X153991409Y-81181971D01*
X153991409Y-81235845D01*
X153964471Y-81316658D01*
X153937534Y-81343595D01*
X153856722Y-81370532D01*
X153802847Y-81370532D01*
X153722035Y-81343595D01*
X153614285Y-81235845D01*
X153587348Y-81155033D01*
X153587348Y-81101158D01*
X153614285Y-81020346D01*
X153641223Y-80993409D01*
X153722035Y-80966471D01*
X153775910Y-80966471D01*
X153856722Y-80993409D01*
X153964471Y-81101158D01*
X154045284Y-81128096D01*
X154099158Y-81128096D01*
X154179971Y-81101158D01*
X154287720Y-80993409D01*
X154314658Y-80912597D01*
X154314658Y-80858722D01*
X154287720Y-80777910D01*
X154179971Y-80670160D01*
X154099158Y-80643223D01*
X154045284Y-80643223D01*
X153964471Y-80670160D01*
X153856722Y-80777910D01*
X153829784Y-80858722D01*
X153829784Y-80912597D01*
X153856722Y-80993409D01*
X162823592Y-82771277D02*
X162850529Y-82852089D01*
X162931341Y-82932902D01*
X163039091Y-82986776D01*
X163146841Y-82986776D01*
X163227653Y-82959839D01*
X163362340Y-82879027D01*
X163443152Y-82798215D01*
X163523964Y-82663528D01*
X163550902Y-82582715D01*
X163550902Y-82474966D01*
X163497027Y-82367216D01*
X163443152Y-82313341D01*
X163335402Y-82259467D01*
X163281528Y-82259467D01*
X163092966Y-82448028D01*
X163200715Y-82555778D01*
X163092966Y-81963155D02*
X162527280Y-82528841D01*
X162311781Y-82313341D01*
X162284844Y-82232529D01*
X162284844Y-82178654D01*
X162311781Y-82097842D01*
X162392593Y-82017030D01*
X162473406Y-81990093D01*
X162527280Y-81990093D01*
X162608093Y-82017030D01*
X162823592Y-82232529D01*
X162230969Y-81101158D02*
X162554218Y-81424407D01*
X162392593Y-81262783D02*
X161826908Y-81828468D01*
X161961595Y-81801531D01*
X162069345Y-81801531D01*
X162150157Y-81828468D01*
X161180410Y-81181971D02*
X161288160Y-81289720D01*
X161368972Y-81316658D01*
X161422847Y-81316658D01*
X161557534Y-81289720D01*
X161692221Y-81208908D01*
X161907720Y-80993409D01*
X161934658Y-80912597D01*
X161934658Y-80858722D01*
X161907720Y-80777910D01*
X161799971Y-80670160D01*
X161719158Y-80643223D01*
X161665284Y-80643223D01*
X161584471Y-80670160D01*
X161449784Y-80804847D01*
X161422847Y-80885659D01*
X161422847Y-80939534D01*
X161449784Y-81020346D01*
X161557534Y-81128096D01*
X161638346Y-81155033D01*
X161692221Y-81155033D01*
X161773033Y-81128096D01*
X147593592Y-82771277D02*
X147620529Y-82852089D01*
X147701341Y-82932902D01*
X147809091Y-82986776D01*
X147916841Y-82986776D01*
X147997653Y-82959839D01*
X148132340Y-82879027D01*
X148213152Y-82798215D01*
X148293964Y-82663528D01*
X148320902Y-82582715D01*
X148320902Y-82474966D01*
X148267027Y-82367216D01*
X148213152Y-82313341D01*
X148105402Y-82259467D01*
X148051528Y-82259467D01*
X147862966Y-82448028D01*
X147970715Y-82555778D01*
X147862966Y-81963155D02*
X147297280Y-82528841D01*
X147081781Y-82313341D01*
X147054844Y-82232529D01*
X147054844Y-82178654D01*
X147081781Y-82097842D01*
X147162593Y-82017030D01*
X147243406Y-81990093D01*
X147297280Y-81990093D01*
X147378093Y-82017030D01*
X147593592Y-82232529D01*
X146812407Y-81936218D02*
X146758532Y-81936218D01*
X146677720Y-81909280D01*
X146543033Y-81774593D01*
X146516096Y-81693781D01*
X146516096Y-81639906D01*
X146543033Y-81559094D01*
X146596908Y-81505219D01*
X146704658Y-81451345D01*
X147351155Y-81451345D01*
X147000969Y-81101158D01*
X146462221Y-80562410D02*
X146785470Y-80885659D01*
X146623845Y-80724035D02*
X146058160Y-81289720D01*
X146192847Y-81262783D01*
X146300597Y-81262783D01*
X146381409Y-81289720D01*
X129534218Y-108355903D02*
X129561155Y-108436715D01*
X129641967Y-108517528D01*
X129749717Y-108571402D01*
X129857467Y-108571402D01*
X129938279Y-108544465D01*
X130072966Y-108463653D01*
X130153778Y-108382841D01*
X130234590Y-108248154D01*
X130261528Y-108167341D01*
X130261528Y-108059592D01*
X130207653Y-107951842D01*
X130153778Y-107897967D01*
X130046028Y-107844093D01*
X129992154Y-107844093D01*
X129803592Y-108032654D01*
X129911341Y-108140404D01*
X129803592Y-107547781D02*
X129237906Y-108113467D01*
X129022407Y-107897967D01*
X128995470Y-107817155D01*
X128995470Y-107763280D01*
X129022407Y-107682468D01*
X129103219Y-107601656D01*
X129184032Y-107574719D01*
X129237906Y-107574719D01*
X129318719Y-107601656D01*
X129534218Y-107817155D01*
X128402847Y-107278407D02*
X128672221Y-107547781D01*
X128968532Y-107305345D01*
X128914658Y-107305345D01*
X128833845Y-107278407D01*
X128699158Y-107143720D01*
X128672221Y-107062908D01*
X128672221Y-107009033D01*
X128699158Y-106928221D01*
X128833845Y-106793534D01*
X128914658Y-106766597D01*
X128968532Y-106766597D01*
X129049345Y-106793534D01*
X129184032Y-106928221D01*
X129210969Y-107009033D01*
X129210969Y-107062908D01*
X124454218Y-108355903D02*
X124481155Y-108436715D01*
X124561967Y-108517528D01*
X124669717Y-108571402D01*
X124777467Y-108571402D01*
X124858279Y-108544465D01*
X124992966Y-108463653D01*
X125073778Y-108382841D01*
X125154590Y-108248154D01*
X125181528Y-108167341D01*
X125181528Y-108059592D01*
X125127653Y-107951842D01*
X125073778Y-107897967D01*
X124966028Y-107844093D01*
X124912154Y-107844093D01*
X124723592Y-108032654D01*
X124831341Y-108140404D01*
X124723592Y-107547781D02*
X124157906Y-108113467D01*
X123942407Y-107897967D01*
X123915470Y-107817155D01*
X123915470Y-107763280D01*
X123942407Y-107682468D01*
X124023219Y-107601656D01*
X124104032Y-107574719D01*
X124157906Y-107574719D01*
X124238719Y-107601656D01*
X124454218Y-107817155D01*
X123646096Y-107601656D02*
X123295910Y-107251470D01*
X123699971Y-107224532D01*
X123619158Y-107143720D01*
X123592221Y-107062908D01*
X123592221Y-107009033D01*
X123619158Y-106928221D01*
X123753845Y-106793534D01*
X123834658Y-106766597D01*
X123888532Y-106766597D01*
X123969345Y-106793534D01*
X124130969Y-106955158D01*
X124157906Y-107035971D01*
X124157906Y-107089845D01*
X133043964Y-82717402D02*
X132774590Y-82448028D01*
X133259463Y-82609653D02*
X132505216Y-82986776D01*
X132882340Y-82232529D01*
X131858719Y-82286404D02*
X131885656Y-82367216D01*
X131966468Y-82448028D01*
X132074218Y-82501903D01*
X132181967Y-82501903D01*
X132262780Y-82474966D01*
X132397467Y-82394154D01*
X132478279Y-82313341D01*
X132559091Y-82178654D01*
X132586028Y-82097842D01*
X132586028Y-81990093D01*
X132532154Y-81882343D01*
X132478279Y-81828468D01*
X132370529Y-81774593D01*
X132316654Y-81774593D01*
X132128093Y-81963155D01*
X132235842Y-82070905D01*
X132128093Y-81478282D02*
X131562407Y-82043967D01*
X131804844Y-81155033D01*
X131239158Y-81720719D01*
X131535470Y-80885659D02*
X130969784Y-81451345D01*
X130835097Y-81316658D01*
X130781223Y-81208908D01*
X130781223Y-81101158D01*
X130808160Y-81020346D01*
X130888972Y-80885659D01*
X130969784Y-80804847D01*
X131104471Y-80724035D01*
X131185284Y-80697097D01*
X131293033Y-80697097D01*
X131400783Y-80750972D01*
X131535470Y-80885659D01*
X117372966Y-82948526D02*
X117750089Y-82194279D01*
X116995842Y-82571402D01*
X117372966Y-81871030D02*
X117319091Y-81763280D01*
X117184404Y-81628593D01*
X117103592Y-81601656D01*
X117049717Y-81601656D01*
X116968905Y-81628593D01*
X116915030Y-81682468D01*
X116888093Y-81763280D01*
X116888093Y-81817155D01*
X116915030Y-81897967D01*
X116995842Y-82032654D01*
X117022780Y-82113467D01*
X117022780Y-82167341D01*
X116995842Y-82248154D01*
X116941967Y-82302028D01*
X116861155Y-82328966D01*
X116807280Y-82328966D01*
X116726468Y-82302028D01*
X116591781Y-82167341D01*
X116537906Y-82059592D01*
X116457094Y-81440032D02*
X116726468Y-81170658D01*
X116349345Y-81924905D02*
X116457094Y-81440032D01*
X115972221Y-81547781D01*
X116349345Y-80847409D02*
X116295470Y-80739659D01*
X116160783Y-80604972D01*
X116079971Y-80578035D01*
X116026096Y-80578035D01*
X115945284Y-80604972D01*
X115891409Y-80658847D01*
X115864471Y-80739659D01*
X115864471Y-80793534D01*
X115891409Y-80874346D01*
X115972221Y-81009033D01*
X115999158Y-81089845D01*
X115999158Y-81143720D01*
X115972221Y-81224532D01*
X115918346Y-81278407D01*
X115837534Y-81305345D01*
X115783659Y-81305345D01*
X115702847Y-81278407D01*
X115568160Y-81143720D01*
X115514285Y-81035971D01*
X150123592Y-82771277D02*
X150150529Y-82852089D01*
X150231341Y-82932902D01*
X150339091Y-82986776D01*
X150446841Y-82986776D01*
X150527653Y-82959839D01*
X150662340Y-82879027D01*
X150743152Y-82798215D01*
X150823964Y-82663528D01*
X150850902Y-82582715D01*
X150850902Y-82474966D01*
X150797027Y-82367216D01*
X150743152Y-82313341D01*
X150635402Y-82259467D01*
X150581528Y-82259467D01*
X150392966Y-82448028D01*
X150500715Y-82555778D01*
X150392966Y-81963155D02*
X149827280Y-82528841D01*
X149611781Y-82313341D01*
X149584844Y-82232529D01*
X149584844Y-82178654D01*
X149611781Y-82097842D01*
X149692593Y-82017030D01*
X149773406Y-81990093D01*
X149827280Y-81990093D01*
X149908093Y-82017030D01*
X150123592Y-82232529D01*
X149342407Y-81936218D02*
X149288532Y-81936218D01*
X149207720Y-81909280D01*
X149073033Y-81774593D01*
X149046096Y-81693781D01*
X149046096Y-81639906D01*
X149073033Y-81559094D01*
X149126908Y-81505219D01*
X149234658Y-81451345D01*
X149881155Y-81451345D01*
X149530969Y-81101158D01*
X148615097Y-81316658D02*
X148561223Y-81262783D01*
X148534285Y-81181971D01*
X148534285Y-81128096D01*
X148561223Y-81047284D01*
X148642035Y-80912597D01*
X148776722Y-80777910D01*
X148911409Y-80697097D01*
X148992221Y-80670160D01*
X149046096Y-80670160D01*
X149126908Y-80697097D01*
X149180783Y-80750972D01*
X149207720Y-80831784D01*
X149207720Y-80885659D01*
X149180783Y-80966471D01*
X149099971Y-81101158D01*
X148965284Y-81235845D01*
X148830597Y-81316658D01*
X148749784Y-81343595D01*
X148695910Y-81343595D01*
X148615097Y-81316658D01*
X157501155Y-82782841D02*
X157528093Y-82863653D01*
X157608905Y-82944465D01*
X157716654Y-82998340D01*
X157824404Y-82998340D01*
X157905216Y-82971402D01*
X158039903Y-82890590D01*
X158120715Y-82809778D01*
X158201528Y-82675091D01*
X158228465Y-82594279D01*
X158228465Y-82486529D01*
X158174590Y-82378780D01*
X158120715Y-82324905D01*
X158012966Y-82271030D01*
X157959091Y-82271030D01*
X157770529Y-82459592D01*
X157878279Y-82567341D01*
X157770529Y-81974719D02*
X157204844Y-82540404D01*
X157447280Y-81651470D01*
X156881595Y-82217155D01*
X157177906Y-81382096D02*
X156612221Y-81947781D01*
X156477534Y-81813094D01*
X156423659Y-81705345D01*
X156423659Y-81597595D01*
X156450597Y-81516783D01*
X156531409Y-81382096D01*
X156612221Y-81301284D01*
X156746908Y-81220471D01*
X156827720Y-81193534D01*
X156935470Y-81193534D01*
X157043219Y-81247409D01*
X157177906Y-81382096D01*
X139694218Y-108355903D02*
X139721155Y-108436715D01*
X139801967Y-108517528D01*
X139909717Y-108571402D01*
X140017467Y-108571402D01*
X140098279Y-108544465D01*
X140232966Y-108463653D01*
X140313778Y-108382841D01*
X140394590Y-108248154D01*
X140421528Y-108167341D01*
X140421528Y-108059592D01*
X140367653Y-107951842D01*
X140313778Y-107897967D01*
X140206028Y-107844093D01*
X140152154Y-107844093D01*
X139963592Y-108032654D01*
X140071341Y-108140404D01*
X139963592Y-107547781D02*
X139397906Y-108113467D01*
X139182407Y-107897967D01*
X139155470Y-107817155D01*
X139155470Y-107763280D01*
X139182407Y-107682468D01*
X139263219Y-107601656D01*
X139344032Y-107574719D01*
X139397906Y-107574719D01*
X139478719Y-107601656D01*
X139694218Y-107817155D01*
X138993845Y-107224532D02*
X139020783Y-107305345D01*
X139020783Y-107359219D01*
X138993845Y-107440032D01*
X138966908Y-107466969D01*
X138886096Y-107493906D01*
X138832221Y-107493906D01*
X138751409Y-107466969D01*
X138643659Y-107359219D01*
X138616722Y-107278407D01*
X138616722Y-107224532D01*
X138643659Y-107143720D01*
X138670597Y-107116783D01*
X138751409Y-107089845D01*
X138805284Y-107089845D01*
X138886096Y-107116783D01*
X138993845Y-107224532D01*
X139074658Y-107251470D01*
X139128532Y-107251470D01*
X139209345Y-107224532D01*
X139317094Y-107116783D01*
X139344032Y-107035971D01*
X139344032Y-106982096D01*
X139317094Y-106901284D01*
X139209345Y-106793534D01*
X139128532Y-106766597D01*
X139074658Y-106766597D01*
X138993845Y-106793534D01*
X138886096Y-106901284D01*
X138859158Y-106982096D01*
X138859158Y-107035971D01*
X138886096Y-107116783D01*
X119401155Y-108382841D02*
X119428093Y-108463653D01*
X119508905Y-108544465D01*
X119616654Y-108598340D01*
X119724404Y-108598340D01*
X119805216Y-108571402D01*
X119939903Y-108490590D01*
X120020715Y-108409778D01*
X120101528Y-108275091D01*
X120128465Y-108194279D01*
X120128465Y-108086529D01*
X120074590Y-107978780D01*
X120020715Y-107924905D01*
X119912966Y-107871030D01*
X119859091Y-107871030D01*
X119670529Y-108059592D01*
X119778279Y-108167341D01*
X119670529Y-107574719D02*
X119104844Y-108140404D01*
X119347280Y-107251470D01*
X118781595Y-107817155D01*
X119077906Y-106982096D02*
X118512221Y-107547781D01*
X118377534Y-107413094D01*
X118323659Y-107305345D01*
X118323659Y-107197595D01*
X118350597Y-107116783D01*
X118431409Y-106982096D01*
X118512221Y-106901284D01*
X118646908Y-106820471D01*
X118727720Y-106793534D01*
X118835470Y-106793534D01*
X118943219Y-106847409D01*
X119077906Y-106982096D01*
X116824218Y-108455903D02*
X116851155Y-108536715D01*
X116931967Y-108617528D01*
X117039717Y-108671402D01*
X117147467Y-108671402D01*
X117228279Y-108644465D01*
X117362966Y-108563653D01*
X117443778Y-108482841D01*
X117524590Y-108348154D01*
X117551528Y-108267341D01*
X117551528Y-108159592D01*
X117497653Y-108051842D01*
X117443778Y-107997967D01*
X117336028Y-107944093D01*
X117282154Y-107944093D01*
X117093592Y-108132654D01*
X117201341Y-108240404D01*
X117093592Y-107647781D02*
X116527906Y-108213467D01*
X116312407Y-107997967D01*
X116285470Y-107917155D01*
X116285470Y-107863280D01*
X116312407Y-107782468D01*
X116393219Y-107701656D01*
X116474032Y-107674719D01*
X116527906Y-107674719D01*
X116608719Y-107701656D01*
X116824218Y-107917155D01*
X116231595Y-106785784D02*
X116554844Y-107109033D01*
X116393219Y-106947409D02*
X115827534Y-107513094D01*
X115962221Y-107486157D01*
X116069971Y-107486157D01*
X116150783Y-107513094D01*
X160283592Y-82771277D02*
X160310529Y-82852089D01*
X160391341Y-82932902D01*
X160499091Y-82986776D01*
X160606841Y-82986776D01*
X160687653Y-82959839D01*
X160822340Y-82879027D01*
X160903152Y-82798215D01*
X160983964Y-82663528D01*
X161010902Y-82582715D01*
X161010902Y-82474966D01*
X160957027Y-82367216D01*
X160903152Y-82313341D01*
X160795402Y-82259467D01*
X160741528Y-82259467D01*
X160552966Y-82448028D01*
X160660715Y-82555778D01*
X160552966Y-81963155D02*
X159987280Y-82528841D01*
X159771781Y-82313341D01*
X159744844Y-82232529D01*
X159744844Y-82178654D01*
X159771781Y-82097842D01*
X159852593Y-82017030D01*
X159933406Y-81990093D01*
X159987280Y-81990093D01*
X160068093Y-82017030D01*
X160283592Y-82232529D01*
X159690969Y-81101158D02*
X160014218Y-81424407D01*
X159852593Y-81262783D02*
X159286908Y-81828468D01*
X159421595Y-81801531D01*
X159529345Y-81801531D01*
X159610157Y-81828468D01*
X158936722Y-81478282D02*
X158559598Y-81101158D01*
X159367720Y-80777910D01*
X142234218Y-108355903D02*
X142261155Y-108436715D01*
X142341967Y-108517528D01*
X142449717Y-108571402D01*
X142557467Y-108571402D01*
X142638279Y-108544465D01*
X142772966Y-108463653D01*
X142853778Y-108382841D01*
X142934590Y-108248154D01*
X142961528Y-108167341D01*
X142961528Y-108059592D01*
X142907653Y-107951842D01*
X142853778Y-107897967D01*
X142746028Y-107844093D01*
X142692154Y-107844093D01*
X142503592Y-108032654D01*
X142611341Y-108140404D01*
X142503592Y-107547781D02*
X141937906Y-108113467D01*
X141722407Y-107897967D01*
X141695470Y-107817155D01*
X141695470Y-107763280D01*
X141722407Y-107682468D01*
X141803219Y-107601656D01*
X141884032Y-107574719D01*
X141937906Y-107574719D01*
X142018719Y-107601656D01*
X142234218Y-107817155D01*
X141910969Y-106955158D02*
X141803219Y-106847409D01*
X141722407Y-106820471D01*
X141668532Y-106820471D01*
X141533845Y-106847409D01*
X141399158Y-106928221D01*
X141183659Y-107143720D01*
X141156722Y-107224532D01*
X141156722Y-107278407D01*
X141183659Y-107359219D01*
X141291409Y-107466969D01*
X141372221Y-107493906D01*
X141426096Y-107493906D01*
X141506908Y-107466969D01*
X141641595Y-107332282D01*
X141668532Y-107251470D01*
X141668532Y-107197595D01*
X141641595Y-107116783D01*
X141533845Y-107009033D01*
X141453033Y-106982096D01*
X141399158Y-106982096D01*
X141318346Y-107009033D01*
X152663592Y-109025277D02*
X152690529Y-109106089D01*
X152771341Y-109186902D01*
X152879091Y-109240776D01*
X152986841Y-109240776D01*
X153067653Y-109213839D01*
X153202340Y-109133027D01*
X153283152Y-109052215D01*
X153363964Y-108917528D01*
X153390902Y-108836715D01*
X153390902Y-108728966D01*
X153337027Y-108621216D01*
X153283152Y-108567341D01*
X153175402Y-108513467D01*
X153121528Y-108513467D01*
X152932966Y-108702028D01*
X153040715Y-108809778D01*
X152932966Y-108217155D02*
X152367280Y-108782841D01*
X152151781Y-108567341D01*
X152124844Y-108486529D01*
X152124844Y-108432654D01*
X152151781Y-108351842D01*
X152232593Y-108271030D01*
X152313406Y-108244093D01*
X152367280Y-108244093D01*
X152448093Y-108271030D01*
X152663592Y-108486529D01*
X152070969Y-107355158D02*
X152394218Y-107678407D01*
X152232593Y-107516783D02*
X151666908Y-108082468D01*
X151801595Y-108055531D01*
X151909345Y-108055531D01*
X151990157Y-108082468D01*
X151343659Y-107651470D02*
X151289784Y-107651470D01*
X151208972Y-107624532D01*
X151074285Y-107489845D01*
X151047348Y-107409033D01*
X151047348Y-107355158D01*
X151074285Y-107274346D01*
X151128160Y-107220471D01*
X151235910Y-107166597D01*
X151882407Y-107166597D01*
X151532221Y-106816410D01*
X160283592Y-108925277D02*
X160310529Y-109006089D01*
X160391341Y-109086902D01*
X160499091Y-109140776D01*
X160606841Y-109140776D01*
X160687653Y-109113839D01*
X160822340Y-109033027D01*
X160903152Y-108952215D01*
X160983964Y-108817528D01*
X161010902Y-108736715D01*
X161010902Y-108628966D01*
X160957027Y-108521216D01*
X160903152Y-108467341D01*
X160795402Y-108413467D01*
X160741528Y-108413467D01*
X160552966Y-108602028D01*
X160660715Y-108709778D01*
X160552966Y-108117155D02*
X159987280Y-108682841D01*
X159771781Y-108467341D01*
X159744844Y-108386529D01*
X159744844Y-108332654D01*
X159771781Y-108251842D01*
X159852593Y-108171030D01*
X159933406Y-108144093D01*
X159987280Y-108144093D01*
X160068093Y-108171030D01*
X160283592Y-108386529D01*
X159690969Y-107255158D02*
X160014218Y-107578407D01*
X159852593Y-107416783D02*
X159286908Y-107982468D01*
X159421595Y-107955531D01*
X159529345Y-107955531D01*
X159610157Y-107982468D01*
X158828972Y-107147409D02*
X159206096Y-106770285D01*
X158748160Y-107497595D02*
X159286908Y-107228221D01*
X158936722Y-106878035D01*
X132101155Y-108382841D02*
X132128093Y-108463653D01*
X132208905Y-108544465D01*
X132316654Y-108598340D01*
X132424404Y-108598340D01*
X132505216Y-108571402D01*
X132639903Y-108490590D01*
X132720715Y-108409778D01*
X132801528Y-108275091D01*
X132828465Y-108194279D01*
X132828465Y-108086529D01*
X132774590Y-107978780D01*
X132720715Y-107924905D01*
X132612966Y-107871030D01*
X132559091Y-107871030D01*
X132370529Y-108059592D01*
X132478279Y-108167341D01*
X132370529Y-107574719D02*
X131804844Y-108140404D01*
X132047280Y-107251470D01*
X131481595Y-107817155D01*
X131777906Y-106982096D02*
X131212221Y-107547781D01*
X131077534Y-107413094D01*
X131023659Y-107305345D01*
X131023659Y-107197595D01*
X131050597Y-107116783D01*
X131131409Y-106982096D01*
X131212221Y-106901284D01*
X131346908Y-106820471D01*
X131427720Y-106793534D01*
X131535470Y-106793534D01*
X131643219Y-106847409D01*
X131777906Y-106982096D01*
X124793592Y-82979152D02*
X124443406Y-82628966D01*
X124847467Y-82602028D01*
X124766654Y-82521216D01*
X124739717Y-82440404D01*
X124739717Y-82386529D01*
X124766654Y-82305717D01*
X124901341Y-82171030D01*
X124982154Y-82144093D01*
X125036028Y-82144093D01*
X125116841Y-82171030D01*
X125278465Y-82332654D01*
X125305402Y-82413467D01*
X125305402Y-82467341D01*
X124281781Y-82467341D02*
X124658905Y-81713094D01*
X123904658Y-82090218D01*
X123769971Y-81955531D02*
X123419784Y-81605345D01*
X123823845Y-81578407D01*
X123743033Y-81497595D01*
X123716096Y-81416783D01*
X123716096Y-81362908D01*
X123743033Y-81282096D01*
X123877720Y-81147409D01*
X123958532Y-81120471D01*
X124012407Y-81120471D01*
X124093219Y-81147409D01*
X124254844Y-81309033D01*
X124281781Y-81389845D01*
X124281781Y-81443720D01*
X121914218Y-108455903D02*
X121941155Y-108536715D01*
X122021967Y-108617528D01*
X122129717Y-108671402D01*
X122237467Y-108671402D01*
X122318279Y-108644465D01*
X122452966Y-108563653D01*
X122533778Y-108482841D01*
X122614590Y-108348154D01*
X122641528Y-108267341D01*
X122641528Y-108159592D01*
X122587653Y-108051842D01*
X122533778Y-107997967D01*
X122426028Y-107944093D01*
X122372154Y-107944093D01*
X122183592Y-108132654D01*
X122291341Y-108240404D01*
X122183592Y-107647781D02*
X121617906Y-108213467D01*
X121402407Y-107997967D01*
X121375470Y-107917155D01*
X121375470Y-107863280D01*
X121402407Y-107782468D01*
X121483219Y-107701656D01*
X121564032Y-107674719D01*
X121617906Y-107674719D01*
X121698719Y-107701656D01*
X121914218Y-107917155D01*
X121133033Y-107620844D02*
X121079158Y-107620844D01*
X120998346Y-107593906D01*
X120863659Y-107459219D01*
X120836722Y-107378407D01*
X120836722Y-107324532D01*
X120863659Y-107243720D01*
X120917534Y-107189845D01*
X121025284Y-107135971D01*
X121671781Y-107135971D01*
X121321595Y-106785784D01*
X114294218Y-108355903D02*
X114321155Y-108436715D01*
X114401967Y-108517528D01*
X114509717Y-108571402D01*
X114617467Y-108571402D01*
X114698279Y-108544465D01*
X114832966Y-108463653D01*
X114913778Y-108382841D01*
X114994590Y-108248154D01*
X115021528Y-108167341D01*
X115021528Y-108059592D01*
X114967653Y-107951842D01*
X114913778Y-107897967D01*
X114806028Y-107844093D01*
X114752154Y-107844093D01*
X114563592Y-108032654D01*
X114671341Y-108140404D01*
X114563592Y-107547781D02*
X113997906Y-108113467D01*
X113782407Y-107897967D01*
X113755470Y-107817155D01*
X113755470Y-107763280D01*
X113782407Y-107682468D01*
X113863219Y-107601656D01*
X113944032Y-107574719D01*
X113997906Y-107574719D01*
X114078719Y-107601656D01*
X114294218Y-107817155D01*
X113324471Y-107440032D02*
X113270597Y-107386157D01*
X113243659Y-107305345D01*
X113243659Y-107251470D01*
X113270597Y-107170658D01*
X113351409Y-107035971D01*
X113486096Y-106901284D01*
X113620783Y-106820471D01*
X113701595Y-106793534D01*
X113755470Y-106793534D01*
X113836282Y-106820471D01*
X113890157Y-106874346D01*
X113917094Y-106955158D01*
X113917094Y-107009033D01*
X113890157Y-107089845D01*
X113809345Y-107224532D01*
X113674658Y-107359219D01*
X113539971Y-107440032D01*
X113459158Y-107466969D01*
X113405284Y-107466969D01*
X113324471Y-107440032D01*
X137124218Y-108255903D02*
X137151155Y-108336715D01*
X137231967Y-108417528D01*
X137339717Y-108471402D01*
X137447467Y-108471402D01*
X137528279Y-108444465D01*
X137662966Y-108363653D01*
X137743778Y-108282841D01*
X137824590Y-108148154D01*
X137851528Y-108067341D01*
X137851528Y-107959592D01*
X137797653Y-107851842D01*
X137743778Y-107797967D01*
X137636028Y-107744093D01*
X137582154Y-107744093D01*
X137393592Y-107932654D01*
X137501341Y-108040404D01*
X137393592Y-107447781D02*
X136827906Y-108013467D01*
X136612407Y-107797967D01*
X136585470Y-107717155D01*
X136585470Y-107663280D01*
X136612407Y-107582468D01*
X136693219Y-107501656D01*
X136774032Y-107474719D01*
X136827906Y-107474719D01*
X136908719Y-107501656D01*
X137124218Y-107717155D01*
X136316096Y-107501656D02*
X135938972Y-107124532D01*
X136747094Y-106801284D01*
X126994218Y-108355903D02*
X127021155Y-108436715D01*
X127101967Y-108517528D01*
X127209717Y-108571402D01*
X127317467Y-108571402D01*
X127398279Y-108544465D01*
X127532966Y-108463653D01*
X127613778Y-108382841D01*
X127694590Y-108248154D01*
X127721528Y-108167341D01*
X127721528Y-108059592D01*
X127667653Y-107951842D01*
X127613778Y-107897967D01*
X127506028Y-107844093D01*
X127452154Y-107844093D01*
X127263592Y-108032654D01*
X127371341Y-108140404D01*
X127263592Y-107547781D02*
X126697906Y-108113467D01*
X126482407Y-107897967D01*
X126455470Y-107817155D01*
X126455470Y-107763280D01*
X126482407Y-107682468D01*
X126563219Y-107601656D01*
X126644032Y-107574719D01*
X126697906Y-107574719D01*
X126778719Y-107601656D01*
X126994218Y-107817155D01*
X126078346Y-107116783D02*
X126455470Y-106739659D01*
X125997534Y-107466969D02*
X126536282Y-107197595D01*
X126186096Y-106847409D01*
X127836773Y-82714211D02*
X127567399Y-82444837D01*
X128052272Y-82606462D02*
X127298025Y-82983585D01*
X127675149Y-82229338D01*
X127486587Y-82040776D02*
X126920902Y-82606462D01*
X126786215Y-82471775D01*
X126732340Y-82364025D01*
X126732340Y-82256276D01*
X126759277Y-82175463D01*
X126840089Y-82040776D01*
X126920902Y-81959964D01*
X127055589Y-81879152D01*
X127136401Y-81852215D01*
X127244150Y-81852215D01*
X127351900Y-81906089D01*
X127486587Y-82040776D01*
X126543778Y-81205717D02*
X126597653Y-81205717D01*
X126705402Y-81259592D01*
X126759277Y-81313467D01*
X126813152Y-81421216D01*
X126813152Y-81528966D01*
X126786215Y-81609778D01*
X126705402Y-81744465D01*
X126624590Y-81825277D01*
X126489903Y-81906089D01*
X126409091Y-81933027D01*
X126301341Y-81933027D01*
X126193592Y-81879152D01*
X126139717Y-81825277D01*
X126085842Y-81717528D01*
X126085842Y-81663653D01*
X126543778Y-80990218D02*
X126112780Y-80559219D01*
X125439345Y-81124905D02*
X125816468Y-80370658D01*
X125062221Y-80747781D01*
X125116096Y-79670285D02*
X125035284Y-80128221D01*
X125439345Y-79993534D02*
X124873659Y-80559219D01*
X124658160Y-80343720D01*
X124631223Y-80262908D01*
X124631223Y-80209033D01*
X124658160Y-80128221D01*
X124738972Y-80047409D01*
X124819784Y-80020471D01*
X124873659Y-80020471D01*
X124954471Y-80047409D01*
X125169971Y-80262908D01*
X124577348Y-79724160D02*
X124388786Y-79535598D01*
X124604285Y-79158475D02*
X124873659Y-79427849D01*
X124307974Y-79993534D01*
X124038600Y-79724160D01*
X123876975Y-79023788D02*
X124065537Y-79212349D01*
X124361849Y-78916038D02*
X123796163Y-79481723D01*
X123526789Y-79212349D01*
X142503592Y-82771277D02*
X142530529Y-82852089D01*
X142611341Y-82932902D01*
X142719091Y-82986776D01*
X142826841Y-82986776D01*
X142907653Y-82959839D01*
X143042340Y-82879027D01*
X143123152Y-82798215D01*
X143203964Y-82663528D01*
X143230902Y-82582715D01*
X143230902Y-82474966D01*
X143177027Y-82367216D01*
X143123152Y-82313341D01*
X143015402Y-82259467D01*
X142961528Y-82259467D01*
X142772966Y-82448028D01*
X142880715Y-82555778D01*
X142772966Y-81963155D02*
X142207280Y-82528841D01*
X141991781Y-82313341D01*
X141964844Y-82232529D01*
X141964844Y-82178654D01*
X141991781Y-82097842D01*
X142072593Y-82017030D01*
X142153406Y-81990093D01*
X142207280Y-81990093D01*
X142288093Y-82017030D01*
X142503592Y-82232529D01*
X141722407Y-81936218D02*
X141668532Y-81936218D01*
X141587720Y-81909280D01*
X141453033Y-81774593D01*
X141426096Y-81693781D01*
X141426096Y-81639906D01*
X141453033Y-81559094D01*
X141506908Y-81505219D01*
X141614658Y-81451345D01*
X142261155Y-81451345D01*
X141910969Y-81101158D01*
X141183659Y-81397470D02*
X141129784Y-81397470D01*
X141048972Y-81370532D01*
X140914285Y-81235845D01*
X140887348Y-81155033D01*
X140887348Y-81101158D01*
X140914285Y-81020346D01*
X140968160Y-80966471D01*
X141075910Y-80912597D01*
X141722407Y-80912597D01*
X141372221Y-80562410D01*
%TO.C,D1*%
X134961404Y-113286880D02*
X134961404Y-112286880D01*
X135199500Y-112286880D01*
X135342357Y-112334500D01*
X135437595Y-112429738D01*
X135485214Y-112524976D01*
X135532833Y-112715452D01*
X135532833Y-112858309D01*
X135485214Y-113048785D01*
X135437595Y-113144023D01*
X135342357Y-113239261D01*
X135199500Y-113286880D01*
X134961404Y-113286880D01*
X136485214Y-113286880D02*
X135913785Y-113286880D01*
X136199500Y-113286880D02*
X136199500Y-112286880D01*
X136104261Y-112429738D01*
X136009023Y-112524976D01*
X135913785Y-112572595D01*
%TO.C,R1*%
X128357333Y-114815880D02*
X128024000Y-114339690D01*
X127785904Y-114815880D02*
X127785904Y-113815880D01*
X128166857Y-113815880D01*
X128262095Y-113863500D01*
X128309714Y-113911119D01*
X128357333Y-114006357D01*
X128357333Y-114149214D01*
X128309714Y-114244452D01*
X128262095Y-114292071D01*
X128166857Y-114339690D01*
X127785904Y-114339690D01*
X129309714Y-114815880D02*
X128738285Y-114815880D01*
X129024000Y-114815880D02*
X129024000Y-113815880D01*
X128928761Y-113958738D01*
X128833523Y-114053976D01*
X128738285Y-114101595D01*
D11*
%TO.C,U3*%
X145606000Y-72898000D02*
X145606000Y-69038000D01*
X161226000Y-76758000D02*
X160961000Y-76758000D01*
X145606000Y-69038000D02*
X145871000Y-69038000D01*
X160961000Y-69038000D02*
X160961000Y-67223000D01*
X161226000Y-69038000D02*
X160961000Y-69038000D01*
X145606000Y-72898000D02*
X145606000Y-76758000D01*
X145606000Y-76758000D02*
X145871000Y-76758000D01*
X161226000Y-72898000D02*
X161226000Y-76758000D01*
X161226000Y-72898000D02*
X161226000Y-69038000D01*
%TO.C,Q1*%
X115006000Y-67566000D02*
X115936000Y-67566000D01*
X118166000Y-67566000D02*
X117236000Y-67566000D01*
X118166000Y-67566000D02*
X118166000Y-69026000D01*
X115006000Y-67566000D02*
X115006000Y-70726000D01*
%TO.C,R6*%
X116876564Y-71909000D02*
X116422436Y-71909000D01*
X116876564Y-73379000D02*
X116422436Y-73379000D01*
%TO.C,R8*%
X142467064Y-72871000D02*
X142012936Y-72871000D01*
X142467064Y-71401000D02*
X142012936Y-71401000D01*
%TO.C,U5*%
X119952000Y-76074000D02*
X120217000Y-76074000D01*
X119952000Y-72214000D02*
X119952000Y-76074000D01*
X119952000Y-68354000D02*
X120217000Y-68354000D01*
X135572000Y-72214000D02*
X135572000Y-76074000D01*
X135307000Y-68354000D02*
X135307000Y-66539000D01*
X135572000Y-68354000D02*
X135307000Y-68354000D01*
X119952000Y-72214000D02*
X119952000Y-68354000D01*
X135572000Y-72214000D02*
X135572000Y-68354000D01*
X135572000Y-76074000D02*
X135307000Y-76074000D01*
%TO.C,Q2*%
X143820000Y-67312000D02*
X142890000Y-67312000D01*
X143820000Y-67312000D02*
X143820000Y-68772000D01*
X140660000Y-67312000D02*
X141590000Y-67312000D01*
X140660000Y-67312000D02*
X140660000Y-70472000D01*
%TO.C,R9*%
X163603000Y-69061064D02*
X163603000Y-68606936D01*
X165073000Y-69061064D02*
X165073000Y-68606936D01*
%TO.C,R10*%
X163295000Y-75474564D02*
X163295000Y-75020436D01*
X161825000Y-75474564D02*
X161825000Y-75020436D01*
%TO.C,C2*%
X164018500Y-75393767D02*
X164018500Y-75101233D01*
X165038500Y-75393767D02*
X165038500Y-75101233D01*
%TO.C,C3*%
X162816000Y-68941733D02*
X162816000Y-69234267D01*
X161796000Y-68941733D02*
X161796000Y-69234267D01*
%TO.C,C5*%
X136142000Y-76854267D02*
X136142000Y-76561733D01*
X137162000Y-76854267D02*
X137162000Y-76561733D01*
%TO.C,C6*%
X137162000Y-68179733D02*
X137162000Y-68472267D01*
X136142000Y-68179733D02*
X136142000Y-68472267D01*
%TO.C,D2*%
X140073000Y-73990000D02*
X140073000Y-69930000D01*
X140073000Y-69930000D02*
X137803000Y-69930000D01*
X137803000Y-69930000D02*
X137803000Y-73990000D01*
%TO.C,J5*%
X161036000Y-61722000D02*
X163636000Y-61722000D01*
X162306000Y-59122000D02*
X163636000Y-59122000D01*
X163636000Y-64322000D02*
X112716000Y-64322000D01*
X161036000Y-59122000D02*
X112716000Y-59122000D01*
X163636000Y-59122000D02*
X163636000Y-60452000D01*
X112716000Y-59122000D02*
X112716000Y-64322000D01*
X161036000Y-59122000D02*
X161036000Y-61722000D01*
X163636000Y-61722000D02*
X163636000Y-64322000D01*
%TO.C,J1*%
X168541000Y-85277500D02*
X177661000Y-85277500D01*
X177661000Y-103317500D02*
X168541000Y-103317500D01*
X168541000Y-103317500D02*
X168541000Y-85277500D01*
X176351000Y-102017500D02*
X169851000Y-102017500D01*
X176351000Y-86577500D02*
X176351000Y-92247500D01*
X179051000Y-97607500D02*
X178051000Y-98107500D01*
X176351000Y-92247500D02*
X177661000Y-92247500D01*
X177661000Y-85277500D02*
X177661000Y-103317500D01*
X179051000Y-98607500D02*
X179051000Y-97607500D01*
X176351000Y-96347500D02*
X176351000Y-102017500D01*
X178051000Y-98107500D02*
X179051000Y-98607500D01*
X176351000Y-92247500D02*
X176351000Y-92247500D01*
X169851000Y-86577500D02*
X176351000Y-86577500D01*
X177661000Y-96347500D02*
X176351000Y-96347500D01*
X169851000Y-102017500D02*
X169851000Y-86577500D01*
%TO.C,J4*%
X179825000Y-76479500D02*
X179825000Y-77869500D01*
X187325000Y-68979500D02*
X190275000Y-72199500D01*
X184905000Y-77869500D02*
X183215000Y-77869500D01*
X190335000Y-67919500D02*
X169075000Y-67919500D01*
X192555000Y-70339500D02*
X192555000Y-74059500D01*
X166855000Y-70339500D02*
X166855000Y-74059500D01*
X190275000Y-72199500D02*
X190275000Y-75419500D01*
X166855000Y-74059500D02*
X167935000Y-74059500D01*
X169625000Y-76479500D02*
X169625000Y-77869500D01*
X174725000Y-77869500D02*
X173035000Y-77869500D01*
X172085000Y-68979500D02*
X187325000Y-68979500D01*
X169075000Y-76479500D02*
X190335000Y-76479500D01*
X173035000Y-77869500D02*
X173035000Y-76479500D01*
X191516000Y-72199500D02*
X191516000Y-59372500D01*
X191516000Y-59372500D02*
X167894000Y-59372500D01*
X178135000Y-77869500D02*
X178135000Y-76479500D01*
X167894000Y-59372500D02*
X167894000Y-72326500D01*
X169135000Y-72199500D02*
X172085000Y-68979500D01*
X191475000Y-70339500D02*
X192555000Y-70339500D01*
X192555000Y-74059500D02*
X191475000Y-74059500D01*
X169135000Y-75419500D02*
X169135000Y-72199500D01*
X188105000Y-77869500D02*
X188105000Y-76479500D01*
X189795000Y-76479500D02*
X189795000Y-77869500D01*
X179825000Y-77869500D02*
X178135000Y-77869500D01*
X190275000Y-75419500D02*
X169135000Y-75419500D01*
X167935000Y-70339500D02*
X166855000Y-70339500D01*
X174725000Y-76479500D02*
X174725000Y-77869500D01*
X189795000Y-77869500D02*
X188105000Y-77869500D01*
X184905000Y-76479500D02*
X184905000Y-77869500D01*
X183215000Y-77869500D02*
X183215000Y-76479500D01*
X167935000Y-69059500D02*
X167935000Y-77869500D01*
X169625000Y-77869500D02*
X167935000Y-77869500D01*
X191475000Y-75339500D02*
X191475000Y-69059500D01*
X190335000Y-76479500D02*
G75*
G03*
X191475000Y-75339500I1J1139999D01*
G01*
X167935000Y-75339500D02*
G75*
G03*
X169075000Y-76479500I1139999J-1D01*
G01*
X191475000Y-69059500D02*
G75*
G03*
X190335000Y-67919500I-1139999J1D01*
G01*
X169075000Y-67919500D02*
G75*
G03*
X167935000Y-69059500I-1J-1139999D01*
G01*
%TO.C,U2*%
X150803000Y-84369000D02*
X151203000Y-84369000D01*
X161003000Y-84369000D02*
X161403000Y-84369000D01*
X122903000Y-105369000D02*
X123303000Y-105369000D01*
X133003000Y-84369000D02*
X133403000Y-84369000D01*
X120303000Y-84369000D02*
X120703000Y-84369000D01*
X145703000Y-105369000D02*
X146103000Y-105369000D01*
X120303000Y-105369000D02*
X120703000Y-105369000D01*
X117803000Y-105369000D02*
X118203000Y-105369000D01*
X140603000Y-105369000D02*
X141003000Y-105369000D01*
X163803000Y-93769000D02*
X163803000Y-93369000D01*
X135603000Y-84369000D02*
X136003000Y-84369000D01*
X143203000Y-105369000D02*
X143603000Y-105369000D01*
X163803000Y-98569000D02*
X163803000Y-105369000D01*
X133003000Y-105369000D02*
X133403000Y-105369000D01*
X112803000Y-105369000D02*
X112803000Y-84369000D01*
X163803000Y-84369000D02*
X163803000Y-91169000D01*
X117803000Y-84369000D02*
X118203000Y-84369000D01*
X138103000Y-105369000D02*
X138503000Y-105369000D01*
X127903000Y-105369000D02*
X128303000Y-105369000D01*
X143203000Y-84369000D02*
X143603000Y-84369000D01*
X140603000Y-84369000D02*
X141003000Y-84369000D01*
X158403000Y-105369000D02*
X158803000Y-105369000D01*
X115470000Y-102362000D02*
X112803000Y-102362000D01*
X125403000Y-84369000D02*
X125803000Y-84369000D01*
X115470000Y-105369000D02*
X115470000Y-102362000D01*
X145703000Y-84369000D02*
X146103000Y-84369000D01*
X138103000Y-84369000D02*
X138503000Y-84369000D01*
X155903000Y-84369000D02*
X156303000Y-84369000D01*
X112803000Y-105369000D02*
X113103000Y-105369000D01*
X150803000Y-105369000D02*
X151203000Y-105369000D01*
X112803000Y-84369000D02*
X113103000Y-84369000D01*
X158403000Y-84369000D02*
X158803000Y-84369000D01*
X122903000Y-84369000D02*
X123303000Y-84369000D01*
X148303000Y-84369000D02*
X148703000Y-84369000D01*
X130503000Y-105369000D02*
X130903000Y-105369000D01*
X153403000Y-84369000D02*
X153803000Y-84369000D01*
X115203000Y-105369000D02*
X115603000Y-105369000D01*
X130503000Y-84369000D02*
X130903000Y-84369000D01*
X135603000Y-105369000D02*
X136003000Y-105369000D01*
X153403000Y-105369000D02*
X153803000Y-105369000D01*
X127903000Y-84369000D02*
X128303000Y-84369000D01*
X125403000Y-105369000D02*
X125803000Y-105369000D01*
X161003000Y-105369000D02*
X161403000Y-105369000D01*
X155903000Y-105369000D02*
X156303000Y-105369000D01*
X163803000Y-96369000D02*
X163803000Y-95969000D01*
X148303000Y-105369000D02*
X148703000Y-105369000D01*
X115203000Y-84369000D02*
X115603000Y-84369000D01*
%TO.C,D1*%
X131239500Y-118499500D02*
X139249500Y-118499500D01*
X131239500Y-113529500D02*
X131239500Y-118499500D01*
X139249500Y-113529500D02*
X131239500Y-113529500D01*
%TO.C,R1*%
X128751064Y-115279500D02*
X128296936Y-115279500D01*
X128751064Y-116749500D02*
X128296936Y-116749500D01*
%TD*%
M02*
