%TF.GenerationSoftware,KiCad,Pcbnew,(6.0.1)*%
%TF.CreationDate,2022-03-24T11:58:16-04:00*%
%TF.ProjectId,FDC,4644432e-6b69-4636-9164-5f7063625858,rev?*%
%TF.SameCoordinates,Original*%
%TF.FileFunction,Soldermask,Bot*%
%TF.FilePolarity,Negative*%
%FSLAX46Y46*%
G04 Gerber Fmt 4.6, Leading zero omitted, Abs format (unit mm)*
G04 Created by KiCad (PCBNEW (6.0.1)) date 2022-03-24 11:58:16*
%MOMM*%
%LPD*%
G01*
G04 APERTURE LIST*
G04 Aperture macros list*
%AMRoundRect*
0 Rectangle with rounded corners*
0 $1 Rounding radius*
0 $2 $3 $4 $5 $6 $7 $8 $9 X,Y pos of 4 corners*
0 Add a 4 corners polygon primitive as box body*
4,1,4,$2,$3,$4,$5,$6,$7,$8,$9,$2,$3,0*
0 Add four circle primitives for the rounded corners*
1,1,$1+$1,$2,$3*
1,1,$1+$1,$4,$5*
1,1,$1+$1,$6,$7*
1,1,$1+$1,$8,$9*
0 Add four rect primitives between the rounded corners*
20,1,$1+$1,$2,$3,$4,$5,0*
20,1,$1+$1,$4,$5,$6,$7,0*
20,1,$1+$1,$6,$7,$8,$9,0*
20,1,$1+$1,$8,$9,$2,$3,0*%
G04 Aperture macros list end*
%ADD10R,1.700000X1.700000*%
%ADD11O,1.700000X1.700000*%
%ADD12RoundRect,0.250000X0.600000X0.600000X-0.600000X0.600000X-0.600000X-0.600000X0.600000X-0.600000X0*%
%ADD13C,1.700000*%
%ADD14C,1.524000*%
%ADD15C,5.000000*%
%ADD16R,2.780000X2.780000*%
%ADD17C,2.780000*%
%ADD18O,1.800000X1.800000*%
%ADD19O,1.500000X1.500000*%
%ADD20C,1.500000*%
%ADD21RoundRect,0.250400X0.149600X0.749600X-0.149600X0.749600X-0.149600X-0.749600X0.149600X-0.749600X0*%
%ADD22RoundRect,0.249900X0.100100X0.750100X-0.100100X0.750100X-0.100100X-0.750100X0.100100X-0.750100X0*%
%ADD23RoundRect,0.352800X2.647200X0.847200X-2.647200X0.847200X-2.647200X-0.847200X2.647200X-0.847200X0*%
%ADD24RoundRect,0.333600X2.666400X0.866400X-2.666400X0.866400X-2.666400X-0.866400X2.666400X-0.866400X0*%
G04 APERTURE END LIST*
D10*
%TO.C,J5*%
X162306000Y-60452000D03*
D11*
X162306000Y-62992000D03*
X159766000Y-60452000D03*
X159766000Y-62992000D03*
X157226000Y-60452000D03*
X157226000Y-62992000D03*
X154686000Y-60452000D03*
X154686000Y-62992000D03*
X152146000Y-60452000D03*
X152146000Y-62992000D03*
X149606000Y-60452000D03*
X149606000Y-62992000D03*
X147066000Y-60452000D03*
X147066000Y-62992000D03*
X144526000Y-60452000D03*
X144526000Y-62992000D03*
X141986000Y-60452000D03*
X141986000Y-62992000D03*
X139446000Y-60452000D03*
X139446000Y-62992000D03*
X136906000Y-60452000D03*
X136906000Y-62992000D03*
X134366000Y-60452000D03*
X134366000Y-62992000D03*
X131826000Y-60452000D03*
X131826000Y-62992000D03*
X129286000Y-60452000D03*
X129286000Y-62992000D03*
X126746000Y-60452000D03*
X126746000Y-62992000D03*
X124206000Y-60452000D03*
X124206000Y-62992000D03*
X121666000Y-60452000D03*
X121666000Y-62992000D03*
X119126000Y-60452000D03*
X119126000Y-62992000D03*
X116586000Y-60452000D03*
X116586000Y-62992000D03*
X114046000Y-60452000D03*
X114046000Y-62992000D03*
%TD*%
D12*
%TO.C,J1*%
X174371000Y-98107500D03*
D13*
X171831000Y-98107500D03*
X174371000Y-95567500D03*
X171831000Y-95567500D03*
X174371000Y-93027500D03*
X171831000Y-93027500D03*
X174371000Y-90487500D03*
X171831000Y-90487500D03*
%TD*%
D14*
%TO.C,J4*%
X169545000Y-69659500D03*
X189865000Y-69659500D03*
D15*
X184785000Y-62039500D03*
X174625000Y-62039500D03*
D16*
X172085000Y-72199500D03*
D17*
X177165000Y-72199500D03*
X182245000Y-72199500D03*
X187325000Y-72199500D03*
%TD*%
D18*
%TO.C,U2*%
X114303000Y-97594000D03*
X114303000Y-92144000D03*
D19*
X117333000Y-97294000D03*
X117333000Y-92444000D03*
D11*
X114173000Y-103759000D03*
X116713000Y-103759000D03*
D10*
X119253000Y-103759000D03*
D11*
X121793000Y-103759000D03*
X124333000Y-103759000D03*
X126873000Y-103759000D03*
X129413000Y-103759000D03*
D10*
X131953000Y-103759000D03*
D11*
X134493000Y-103759000D03*
X137033000Y-103759000D03*
X139573000Y-103759000D03*
X142113000Y-103759000D03*
D10*
X144653000Y-103759000D03*
D11*
X147193000Y-103759000D03*
X149733000Y-103759000D03*
X152273000Y-103759000D03*
X154813000Y-103759000D03*
D10*
X157353000Y-103759000D03*
D11*
X159893000Y-103759000D03*
X162433000Y-103759000D03*
X162433000Y-85979000D03*
X159893000Y-85979000D03*
D10*
X157353000Y-85979000D03*
D11*
X154813000Y-85979000D03*
X152273000Y-85979000D03*
X149733000Y-85979000D03*
X147193000Y-85979000D03*
D10*
X144653000Y-85979000D03*
D11*
X142113000Y-85979000D03*
X139573000Y-85979000D03*
X137033000Y-85979000D03*
X134493000Y-85979000D03*
D10*
X131953000Y-85979000D03*
D11*
X129413000Y-85979000D03*
X126873000Y-85979000D03*
X124333000Y-85979000D03*
X121793000Y-85979000D03*
D10*
X119253000Y-85979000D03*
D11*
X116713000Y-85979000D03*
X114173000Y-85979000D03*
X162203000Y-97409000D03*
D10*
X162203000Y-94869000D03*
D11*
X162203000Y-92329000D03*
%TD*%
D20*
%TO.C,J3*%
X121504000Y-115695500D03*
X145704000Y-115695500D03*
D21*
X140484000Y-91195500D03*
X137984000Y-91195500D03*
X134684000Y-91195500D03*
X132984000Y-91195500D03*
X130484000Y-91195500D03*
X127984000Y-91195500D03*
X125554000Y-91195500D03*
X123854000Y-91195500D03*
X142984000Y-91195500D03*
X136284000Y-91195500D03*
D22*
X120364000Y-91195500D03*
D23*
X119434000Y-113595500D03*
D24*
X148399000Y-112395500D03*
%TD*%
M02*
