%TF.GenerationSoftware,KiCad,Pcbnew,(6.0.1)*%
%TF.CreationDate,2022-03-24T11:58:16-04:00*%
%TF.ProjectId,FDC,4644432e-6b69-4636-9164-5f7063625858,rev?*%
%TF.SameCoordinates,Original*%
%TF.FileFunction,Copper,L1,Top*%
%TF.FilePolarity,Positive*%
%FSLAX46Y46*%
G04 Gerber Fmt 4.6, Leading zero omitted, Abs format (unit mm)*
G04 Created by KiCad (PCBNEW (6.0.1)) date 2022-03-24 11:58:16*
%MOMM*%
%LPD*%
G01*
G04 APERTURE LIST*
G04 Aperture macros list*
%AMRoundRect*
0 Rectangle with rounded corners*
0 $1 Rounding radius*
0 $2 $3 $4 $5 $6 $7 $8 $9 X,Y pos of 4 corners*
0 Add a 4 corners polygon primitive as box body*
4,1,4,$2,$3,$4,$5,$6,$7,$8,$9,$2,$3,0*
0 Add four circle primitives for the rounded corners*
1,1,$1+$1,$2,$3*
1,1,$1+$1,$4,$5*
1,1,$1+$1,$6,$7*
1,1,$1+$1,$8,$9*
0 Add four rect primitives between the rounded corners*
20,1,$1+$1,$2,$3,$4,$5,0*
20,1,$1+$1,$4,$5,$6,$7,0*
20,1,$1+$1,$6,$7,$8,$9,0*
20,1,$1+$1,$8,$9,$2,$3,0*%
G04 Aperture macros list end*
%TA.AperFunction,SMDPad,CuDef*%
%ADD10RoundRect,0.150000X-0.150000X0.875000X-0.150000X-0.875000X0.150000X-0.875000X0.150000X0.875000X0*%
%TD*%
%TA.AperFunction,SMDPad,CuDef*%
%ADD11R,0.800000X1.900000*%
%TD*%
%TA.AperFunction,SMDPad,CuDef*%
%ADD12RoundRect,0.249999X0.350001X0.450001X-0.350001X0.450001X-0.350001X-0.450001X0.350001X-0.450001X0*%
%TD*%
%TA.AperFunction,SMDPad,CuDef*%
%ADD13RoundRect,0.249999X0.450001X-0.350001X0.450001X0.350001X-0.450001X0.350001X-0.450001X-0.350001X0*%
%TD*%
%TA.AperFunction,SMDPad,CuDef*%
%ADD14RoundRect,0.237500X0.237500X-0.300000X0.237500X0.300000X-0.237500X0.300000X-0.237500X-0.300000X0*%
%TD*%
%TA.AperFunction,SMDPad,CuDef*%
%ADD15RoundRect,0.237500X-0.237500X0.300000X-0.237500X-0.300000X0.237500X-0.300000X0.237500X0.300000X0*%
%TD*%
%TA.AperFunction,SMDPad,CuDef*%
%ADD16RoundRect,0.250000X-0.625000X0.462500X-0.625000X-0.462500X0.625000X-0.462500X0.625000X0.462500X0*%
%TD*%
%TA.AperFunction,ComponentPad*%
%ADD17R,1.700000X1.700000*%
%TD*%
%TA.AperFunction,ComponentPad*%
%ADD18O,1.700000X1.700000*%
%TD*%
%TA.AperFunction,ComponentPad*%
%ADD19RoundRect,0.250000X0.600000X0.600000X-0.600000X0.600000X-0.600000X-0.600000X0.600000X-0.600000X0*%
%TD*%
%TA.AperFunction,ComponentPad*%
%ADD20C,1.700000*%
%TD*%
%TA.AperFunction,WasherPad*%
%ADD21C,5.000000*%
%TD*%
%TA.AperFunction,ComponentPad*%
%ADD22R,2.780000X2.780000*%
%TD*%
%TA.AperFunction,ComponentPad*%
%ADD23C,2.780000*%
%TD*%
%TA.AperFunction,SMDPad,CuDef*%
%ADD24R,1.700000X3.500000*%
%TD*%
%TA.AperFunction,SMDPad,CuDef*%
%ADD25R,3.500000X1.700000*%
%TD*%
%TA.AperFunction,SMDPad,CuDef*%
%ADD26RoundRect,0.250000X-1.350000X-1.975000X1.350000X-1.975000X1.350000X1.975000X-1.350000X1.975000X0*%
%TD*%
%TA.AperFunction,SMDPad,CuDef*%
%ADD27RoundRect,0.250000X0.350000X0.450000X-0.350000X0.450000X-0.350000X-0.450000X0.350000X-0.450000X0*%
%TD*%
%TA.AperFunction,ViaPad*%
%ADD28C,0.800000*%
%TD*%
%TA.AperFunction,Conductor*%
%ADD29C,1.000000*%
%TD*%
%TA.AperFunction,Conductor*%
%ADD30C,0.500000*%
%TD*%
%TA.AperFunction,Conductor*%
%ADD31C,0.250000*%
%TD*%
G04 APERTURE END LIST*
D10*
%TO.P,U3,1*%
%TO.N,+5V*%
X160401000Y-68248000D03*
%TO.P,U3,2*%
%TO.N,/DIR*%
X159131000Y-68248000D03*
%TO.P,U3,3*%
%TO.N,/D0*%
X157861000Y-68248000D03*
%TO.P,U3,4*%
%TO.N,/D1*%
X156591000Y-68248000D03*
%TO.P,U3,5*%
%TO.N,/D2*%
X155321000Y-68248000D03*
%TO.P,U3,6*%
%TO.N,/D3*%
X154051000Y-68248000D03*
%TO.P,U3,7*%
%TO.N,/D4*%
X152781000Y-68248000D03*
%TO.P,U3,8*%
%TO.N,/D5*%
X151511000Y-68248000D03*
%TO.P,U3,9*%
%TO.N,/D6*%
X150241000Y-68248000D03*
%TO.P,U3,10*%
%TO.N,/D7*%
X148971000Y-68248000D03*
%TO.P,U3,11*%
%TO.N,GND*%
X147701000Y-68248000D03*
%TO.P,U3,12*%
X146431000Y-68248000D03*
%TO.P,U3,13*%
X146431000Y-77548000D03*
%TO.P,U3,14*%
%TO.N,/D7'*%
X147701000Y-77548000D03*
%TO.P,U3,15*%
%TO.N,/D6'*%
X148971000Y-77548000D03*
%TO.P,U3,16*%
%TO.N,/D5'*%
X150241000Y-77548000D03*
%TO.P,U3,17*%
%TO.N,/D4'*%
X151511000Y-77548000D03*
%TO.P,U3,18*%
%TO.N,/D3'*%
X152781000Y-77548000D03*
%TO.P,U3,19*%
%TO.N,/D2'*%
X154051000Y-77548000D03*
%TO.P,U3,20*%
%TO.N,/D1'*%
X155321000Y-77548000D03*
%TO.P,U3,21*%
%TO.N,/D0'*%
X156591000Y-77548000D03*
%TO.P,U3,22*%
%TO.N,/OE*%
X157861000Y-77548000D03*
%TO.P,U3,23*%
%TO.N,+3V3*%
X159131000Y-77548000D03*
%TO.P,U3,24*%
X160401000Y-77548000D03*
%TD*%
D11*
%TO.P,Q1,1*%
%TO.N,Net-(Q1-Pad1)*%
X115636000Y-69826000D03*
%TO.P,Q1,2*%
%TO.N,GND*%
X117536000Y-69826000D03*
%TO.P,Q1,3*%
%TO.N,/WAIT*%
X116586000Y-66826000D03*
%TD*%
D12*
%TO.P,R6,1*%
%TO.N,/WAIT'*%
X117649500Y-72644000D03*
%TO.P,R6,2*%
%TO.N,Net-(Q1-Pad1)*%
X115649500Y-72644000D03*
%TD*%
%TO.P,R8,1*%
%TO.N,/NMI'*%
X143240000Y-72136000D03*
%TO.P,R8,2*%
%TO.N,Net-(Q2-Pad1)*%
X141240000Y-72136000D03*
%TD*%
D10*
%TO.P,U5,1*%
%TO.N,+5V*%
X134747000Y-67564000D03*
%TO.P,U5,2*%
X133477000Y-67564000D03*
%TO.P,U5,3*%
%TO.N,/DISKIN*%
X132207000Y-67564000D03*
%TO.P,U5,4*%
%TO.N,/DISKOUT*%
X130937000Y-67564000D03*
%TO.P,U5,5*%
%TO.N,/A0*%
X129667000Y-67564000D03*
%TO.P,U5,6*%
%TO.N,/A1*%
X128397000Y-67564000D03*
%TO.P,U5,7*%
%TO.N,/INTAK*%
X127127000Y-67564000D03*
%TO.P,U5,8*%
%TO.N,/WRNMI*%
X125857000Y-67564000D03*
%TO.P,U5,9*%
%TO.N,/RDNMI*%
X124587000Y-67564000D03*
%TO.P,U5,10*%
%TO.N,/DRVSEL*%
X123317000Y-67564000D03*
%TO.P,U5,11*%
%TO.N,GND*%
X122047000Y-67564000D03*
%TO.P,U5,12*%
X120777000Y-67564000D03*
%TO.P,U5,13*%
X120777000Y-76864000D03*
%TO.P,U5,14*%
%TO.N,/DRVSEL'*%
X122047000Y-76864000D03*
%TO.P,U5,15*%
%TO.N,/RDNMI'*%
X123317000Y-76864000D03*
%TO.P,U5,16*%
%TO.N,/WRNMI'*%
X124587000Y-76864000D03*
%TO.P,U5,17*%
%TO.N,N/C*%
X125857000Y-76864000D03*
%TO.P,U5,18*%
%TO.N,/A1'*%
X127127000Y-76864000D03*
%TO.P,U5,19*%
%TO.N,/A0'*%
X128397000Y-76864000D03*
%TO.P,U5,20*%
%TO.N,/DISKOUT'*%
X129667000Y-76864000D03*
%TO.P,U5,21*%
%TO.N,/DISKIN'*%
X130937000Y-76864000D03*
%TO.P,U5,22*%
%TO.N,GND*%
X132207000Y-76864000D03*
%TO.P,U5,23*%
%TO.N,+3V3*%
X133477000Y-76864000D03*
%TO.P,U5,24*%
X134747000Y-76864000D03*
%TD*%
D11*
%TO.P,Q2,1*%
%TO.N,Net-(Q2-Pad1)*%
X141290000Y-69572000D03*
%TO.P,Q2,2*%
%TO.N,GND*%
X143190000Y-69572000D03*
%TO.P,Q2,3*%
%TO.N,/NMI*%
X142240000Y-66572000D03*
%TD*%
D13*
%TO.P,R9,1*%
%TO.N,+3V3*%
X164338000Y-69834000D03*
%TO.P,R9,2*%
%TO.N,/DIR*%
X164338000Y-67834000D03*
%TD*%
%TO.P,R10,1*%
%TO.N,/OE*%
X162560000Y-76247500D03*
%TO.P,R10,2*%
%TO.N,GND*%
X162560000Y-74247500D03*
%TD*%
D14*
%TO.P,C2,1*%
%TO.N,+3V3*%
X164528500Y-76110000D03*
%TO.P,C2,2*%
%TO.N,GND*%
X164528500Y-74385000D03*
%TD*%
D15*
%TO.P,C3,1*%
%TO.N,+5V*%
X162306000Y-68225500D03*
%TO.P,C3,2*%
%TO.N,GND*%
X162306000Y-69950500D03*
%TD*%
D14*
%TO.P,C5,1*%
%TO.N,+3V3*%
X136652000Y-77570500D03*
%TO.P,C5,2*%
%TO.N,GND*%
X136652000Y-75845500D03*
%TD*%
D15*
%TO.P,C6,1*%
%TO.N,+5V*%
X136652000Y-67463500D03*
%TO.P,C6,2*%
%TO.N,GND*%
X136652000Y-69188500D03*
%TD*%
D16*
%TO.P,D2,1*%
%TO.N,/RESET*%
X138938000Y-70902500D03*
%TO.P,D2,2*%
%TO.N,/RESET'*%
X138938000Y-73877500D03*
%TD*%
D17*
%TO.P,J5,1*%
%TO.N,GND*%
X162306000Y-60452000D03*
D18*
%TO.P,J5,2*%
%TO.N,/D0*%
X162306000Y-62992000D03*
%TO.P,J5,3*%
%TO.N,GND*%
X159766000Y-60452000D03*
%TO.P,J5,4*%
%TO.N,/D1*%
X159766000Y-62992000D03*
%TO.P,J5,5*%
%TO.N,GND*%
X157226000Y-60452000D03*
%TO.P,J5,6*%
%TO.N,/D2*%
X157226000Y-62992000D03*
%TO.P,J5,7*%
%TO.N,GND*%
X154686000Y-60452000D03*
%TO.P,J5,8*%
%TO.N,/D3*%
X154686000Y-62992000D03*
%TO.P,J5,9*%
%TO.N,GND*%
X152146000Y-60452000D03*
%TO.P,J5,10*%
%TO.N,/D4*%
X152146000Y-62992000D03*
%TO.P,J5,11*%
%TO.N,GND*%
X149606000Y-60452000D03*
%TO.P,J5,12*%
%TO.N,/D5*%
X149606000Y-62992000D03*
%TO.P,J5,13*%
%TO.N,GND*%
X147066000Y-60452000D03*
%TO.P,J5,14*%
%TO.N,/D6*%
X147066000Y-62992000D03*
%TO.P,J5,15*%
%TO.N,GND*%
X144526000Y-60452000D03*
%TO.P,J5,16*%
%TO.N,/D7*%
X144526000Y-62992000D03*
%TO.P,J5,17*%
%TO.N,GND*%
X141986000Y-60452000D03*
%TO.P,J5,18*%
%TO.N,/DISKIN*%
X141986000Y-62992000D03*
%TO.P,J5,19*%
%TO.N,GND*%
X139446000Y-60452000D03*
%TO.P,J5,20*%
%TO.N,/DISKOUT*%
X139446000Y-62992000D03*
%TO.P,J5,21*%
%TO.N,GND*%
X136906000Y-60452000D03*
%TO.P,J5,22*%
%TO.N,/A0*%
X136906000Y-62992000D03*
%TO.P,J5,23*%
%TO.N,GND*%
X134366000Y-60452000D03*
%TO.P,J5,24*%
%TO.N,/A1*%
X134366000Y-62992000D03*
%TO.P,J5,25*%
%TO.N,GND*%
X131826000Y-60452000D03*
%TO.P,J5,26*%
%TO.N,/NMI*%
X131826000Y-62992000D03*
%TO.P,J5,27*%
%TO.N,GND*%
X129286000Y-60452000D03*
%TO.P,J5,28*%
%TO.N,/RESET*%
X129286000Y-62992000D03*
%TO.P,J5,29*%
%TO.N,GND*%
X126746000Y-60452000D03*
%TO.P,J5,30*%
%TO.N,/INTAK*%
X126746000Y-62992000D03*
%TO.P,J5,31*%
%TO.N,GND*%
X124206000Y-60452000D03*
%TO.P,J5,32*%
%TO.N,/WRNMI*%
X124206000Y-62992000D03*
%TO.P,J5,33*%
%TO.N,GND*%
X121666000Y-60452000D03*
%TO.P,J5,34*%
%TO.N,/RDNMI*%
X121666000Y-62992000D03*
%TO.P,J5,35*%
%TO.N,GND*%
X119126000Y-60452000D03*
%TO.P,J5,36*%
%TO.N,/DRVSEL*%
X119126000Y-62992000D03*
%TO.P,J5,37*%
%TO.N,GND*%
X116586000Y-60452000D03*
%TO.P,J5,38*%
%TO.N,/WAIT*%
X116586000Y-62992000D03*
%TO.P,J5,39*%
%TO.N,GND*%
X114046000Y-60452000D03*
%TO.P,J5,40*%
X114046000Y-62992000D03*
%TD*%
D19*
%TO.P,J1,1*%
%TO.N,/SWCLK*%
X174371000Y-98107500D03*
D20*
%TO.P,J1,2*%
%TO.N,+5V*%
X171831000Y-98107500D03*
%TO.P,J1,3*%
%TO.N,/SWDIO*%
X174371000Y-95567500D03*
%TO.P,J1,4*%
%TO.N,+5V*%
X171831000Y-95567500D03*
%TO.P,J1,5*%
%TO.N,N/C*%
X174371000Y-93027500D03*
%TO.P,J1,6*%
%TO.N,GND*%
X171831000Y-93027500D03*
%TO.P,J1,7*%
%TO.N,/DEBUG_TXD*%
X174371000Y-90487500D03*
%TO.P,J1,8*%
%TO.N,GND*%
X171831000Y-90487500D03*
%TD*%
D21*
%TO.P,J4,*%
%TO.N,*%
X184785000Y-62039500D03*
X174625000Y-62039500D03*
D22*
%TO.P,J4,1*%
%TO.N,+5V*%
X172085000Y-72199500D03*
D23*
%TO.P,J4,2*%
%TO.N,GND*%
X177165000Y-72199500D03*
%TO.P,J4,3*%
%TO.N,N/C*%
X182245000Y-72199500D03*
%TO.P,J4,4*%
X187325000Y-72199500D03*
%TD*%
D24*
%TO.P,U2,1*%
%TO.N,/DEBUG_TXD*%
X114173000Y-104659000D03*
D18*
X114173000Y-103759000D03*
%TO.P,U2,2*%
%TO.N,/OE*%
X116713000Y-103759000D03*
D24*
X116713000Y-104659000D03*
D17*
%TO.P,U2,3*%
%TO.N,GND*%
X119253000Y-103759000D03*
D24*
X119253000Y-104659000D03*
%TO.P,U2,4*%
%TO.N,/CLK_SCLK*%
X121793000Y-104659000D03*
D18*
X121793000Y-103759000D03*
D24*
%TO.P,U2,5*%
%TO.N,/CMD_MOSI*%
X124333000Y-104659000D03*
D18*
X124333000Y-103759000D03*
D24*
%TO.P,U2,6*%
%TO.N,/DAT0_MISO*%
X126873000Y-104659000D03*
D18*
X126873000Y-103759000D03*
%TO.P,U2,7*%
%TO.N,/DAT3_CS*%
X129413000Y-103759000D03*
D24*
X129413000Y-104659000D03*
D17*
%TO.P,U2,8*%
%TO.N,GND*%
X131953000Y-103759000D03*
D24*
X131953000Y-104659000D03*
D18*
%TO.P,U2,9*%
%TO.N,/WAIT'*%
X134493000Y-103759000D03*
D24*
X134493000Y-104659000D03*
%TO.P,U2,10*%
%TO.N,/DRVSEL'*%
X137033000Y-104659000D03*
D18*
X137033000Y-103759000D03*
%TO.P,U2,11*%
%TO.N,/RDNMI'*%
X139573000Y-103759000D03*
D24*
X139573000Y-104659000D03*
%TO.P,U2,12*%
%TO.N,/WRNMI'*%
X142113000Y-104659000D03*
D18*
X142113000Y-103759000D03*
D17*
%TO.P,U2,13*%
%TO.N,GND*%
X144653000Y-103759000D03*
D24*
X144653000Y-104659000D03*
D18*
%TO.P,U2,14*%
%TO.N,/DISKOUT'*%
X147193000Y-103759000D03*
D24*
X147193000Y-104659000D03*
D18*
%TO.P,U2,15*%
%TO.N,/DISKIN'*%
X149733000Y-103759000D03*
D24*
X149733000Y-104659000D03*
%TO.P,U2,16*%
%TO.N,/RESET'*%
X152273000Y-104659000D03*
D18*
X152273000Y-103759000D03*
D24*
%TO.P,U2,17*%
%TO.N,/NMI'*%
X154813000Y-104659000D03*
D18*
X154813000Y-103759000D03*
D24*
%TO.P,U2,18*%
%TO.N,GND*%
X157353000Y-104659000D03*
D17*
X157353000Y-103759000D03*
D24*
%TO.P,U2,19*%
%TO.N,/DIR*%
X159893000Y-104659000D03*
D18*
X159893000Y-103759000D03*
D24*
%TO.P,U2,20*%
%TO.N,/D0'*%
X162433000Y-104659000D03*
D18*
X162433000Y-103759000D03*
D24*
%TO.P,U2,21*%
%TO.N,/D1'*%
X162433000Y-85079000D03*
D18*
X162433000Y-85979000D03*
%TO.P,U2,22*%
%TO.N,/D2'*%
X159893000Y-85979000D03*
D24*
X159893000Y-85079000D03*
%TO.P,U2,23*%
%TO.N,GND*%
X157353000Y-85079000D03*
D17*
X157353000Y-85979000D03*
D24*
%TO.P,U2,24*%
%TO.N,/D3'*%
X154813000Y-85079000D03*
D18*
X154813000Y-85979000D03*
%TO.P,U2,25*%
%TO.N,/D4'*%
X152273000Y-85979000D03*
D24*
X152273000Y-85079000D03*
D18*
%TO.P,U2,26*%
%TO.N,/D5'*%
X149733000Y-85979000D03*
D24*
X149733000Y-85079000D03*
%TO.P,U2,27*%
%TO.N,/D6'*%
X147193000Y-85079000D03*
D18*
X147193000Y-85979000D03*
D17*
%TO.P,U2,28*%
%TO.N,GND*%
X144653000Y-85979000D03*
D24*
X144653000Y-85079000D03*
%TO.P,U2,29*%
%TO.N,/D7'*%
X142113000Y-85079000D03*
D18*
X142113000Y-85979000D03*
%TO.P,U2,30*%
%TO.N,Net-(U2-Pad30)*%
X139573000Y-85979000D03*
D24*
X139573000Y-85079000D03*
D18*
%TO.P,U2,31*%
%TO.N,/CD*%
X137033000Y-85979000D03*
D24*
X137033000Y-85079000D03*
D18*
%TO.P,U2,32*%
%TO.N,/A0'*%
X134493000Y-85979000D03*
D24*
X134493000Y-85079000D03*
%TO.P,U2,33*%
%TO.N,GND*%
X131953000Y-85079000D03*
D17*
X131953000Y-85979000D03*
D18*
%TO.P,U2,34*%
%TO.N,/A1'*%
X129413000Y-85979000D03*
D24*
X129413000Y-85079000D03*
%TO.P,U2,35*%
%TO.N,Net-(U2-Pad35)*%
X126873000Y-85079000D03*
D18*
X126873000Y-85979000D03*
%TO.P,U2,36*%
%TO.N,+3V3*%
X124333000Y-85979000D03*
D24*
X124333000Y-85079000D03*
%TO.P,U2,37*%
%TO.N,Net-(U2-Pad37)*%
X121793000Y-85079000D03*
D18*
X121793000Y-85979000D03*
D24*
%TO.P,U2,38*%
%TO.N,GND*%
X119253000Y-85079000D03*
D17*
X119253000Y-85979000D03*
D24*
%TO.P,U2,39*%
%TO.N,+5V*%
X116713000Y-85079000D03*
D18*
X116713000Y-85979000D03*
%TO.P,U2,40*%
%TO.N,Net-(U2-Pad40)*%
X114173000Y-85979000D03*
D24*
X114173000Y-85079000D03*
D25*
%TO.P,U2,41*%
%TO.N,/SWCLK*%
X163103000Y-97409000D03*
D18*
X162203000Y-97409000D03*
D17*
%TO.P,U2,42*%
%TO.N,GND*%
X162203000Y-94869000D03*
D25*
X163103000Y-94869000D03*
%TO.P,U2,43*%
%TO.N,/SWDIO*%
X163103000Y-92329000D03*
D18*
X162203000Y-92329000D03*
%TD*%
D26*
%TO.P,D1,1*%
%TO.N,Net-(D1-Pad1)*%
X133099500Y-116014500D03*
%TO.P,D1,2*%
%TO.N,+3V3*%
X138299500Y-116014500D03*
%TD*%
D27*
%TO.P,R1,1*%
%TO.N,Net-(D1-Pad1)*%
X129524000Y-116014500D03*
%TO.P,R1,2*%
%TO.N,/DEBUG_TXD*%
X127524000Y-116014500D03*
%TD*%
D28*
%TO.N,GND*%
X164973000Y-72771000D03*
%TO.N,+3V3*%
X160401000Y-80327500D03*
X136652000Y-79184500D03*
%TO.N,/RESET*%
X139954000Y-67310000D03*
%TO.N,/DEBUG_TXD*%
X127508000Y-117602000D03*
%TO.N,+5V*%
X160528000Y-71374000D03*
X133477000Y-69215000D03*
%TD*%
D29*
%TO.N,GND*%
X165417500Y-60452000D02*
X162306000Y-60452000D01*
X143190000Y-69572000D02*
X146391500Y-69572000D01*
X147637500Y-72644000D02*
X146431000Y-72644000D01*
D30*
X162306000Y-72644000D02*
X162306000Y-72263000D01*
D29*
X132207000Y-70724502D02*
X122061498Y-70724502D01*
D30*
X132207000Y-73850500D02*
X132207000Y-70724502D01*
D29*
X177165000Y-72199500D02*
X165417500Y-60452000D01*
D31*
X164391000Y-74247500D02*
X164528500Y-74385000D01*
D30*
X132207000Y-76864000D02*
X132207000Y-73850500D01*
X136652000Y-73850500D02*
X136652000Y-70612000D01*
D29*
X146391500Y-69572000D02*
X146431000Y-69532500D01*
X162306000Y-72644000D02*
X147637500Y-72644000D01*
X120777000Y-70739000D02*
X120777000Y-69723000D01*
X122047000Y-70710004D02*
X122061498Y-70724502D01*
X120791498Y-70724502D02*
X120777000Y-70739000D01*
X117536000Y-69834000D02*
X120666000Y-69834000D01*
X147701000Y-72580500D02*
X147637500Y-72644000D01*
X119253000Y-80137000D02*
X119253000Y-85979000D01*
D30*
X162306000Y-72644000D02*
X162306000Y-73993500D01*
D29*
X146431000Y-77548000D02*
X146431000Y-72644000D01*
X147701000Y-68248000D02*
X147701000Y-72580500D01*
X122061498Y-70724502D02*
X120791498Y-70724502D01*
D30*
X164846000Y-72644000D02*
X164973000Y-72771000D01*
X132207000Y-70724502D02*
X136539498Y-70724502D01*
D29*
X122047000Y-67564000D02*
X122047000Y-70710004D01*
D30*
X162306000Y-73993500D02*
X162560000Y-74247500D01*
D29*
X120777000Y-67564000D02*
X120777000Y-69723000D01*
D30*
X136539498Y-70724502D02*
X136652000Y-70612000D01*
X136652000Y-75845500D02*
X136652000Y-73850500D01*
X162306000Y-72263000D02*
X162306000Y-69863000D01*
X120777000Y-69723000D02*
X120666000Y-69834000D01*
X136652000Y-70612000D02*
X136652000Y-69188500D01*
D29*
X146431000Y-69532500D02*
X146431000Y-72644000D01*
X120777000Y-76864000D02*
X120777000Y-78613000D01*
X162306000Y-72644000D02*
X164846000Y-72644000D01*
X120777000Y-78613000D02*
X119253000Y-80137000D01*
X146431000Y-68248000D02*
X146431000Y-69532500D01*
X120777000Y-76864000D02*
X120777000Y-70739000D01*
D31*
X162560000Y-74247500D02*
X164391000Y-74247500D01*
%TO.N,+3V3*%
X124333000Y-88454000D02*
X138303000Y-102424000D01*
X138303000Y-116011000D02*
X138299500Y-116014500D01*
X160401000Y-77548000D02*
X163942500Y-77548000D01*
X165862000Y-75374500D02*
X165862000Y-71358000D01*
D30*
X135453500Y-77570500D02*
X134747000Y-76864000D01*
D31*
X164528500Y-76110000D02*
X165126500Y-76110000D01*
X164528500Y-76962000D02*
X164528500Y-76110000D01*
D30*
X160401000Y-77548000D02*
X160401000Y-80327500D01*
D31*
X165126500Y-76110000D02*
X165862000Y-75374500D01*
X124333000Y-85979000D02*
X124333000Y-88454000D01*
D30*
X133477000Y-76864000D02*
X134747000Y-76864000D01*
X160401000Y-77548000D02*
X159131000Y-77548000D01*
D31*
X165862000Y-71358000D02*
X164338000Y-69834000D01*
X138303000Y-102424000D02*
X138303000Y-116011000D01*
D30*
X136652000Y-77570500D02*
X135453500Y-77570500D01*
D31*
X163942500Y-77548000D02*
X164528500Y-76962000D01*
D30*
X136652000Y-77570500D02*
X136652000Y-79184500D01*
D31*
%TO.N,/D7*%
X148971000Y-67437000D02*
X144526000Y-62992000D01*
X148971000Y-68248000D02*
X148971000Y-67437000D01*
%TO.N,/D6*%
X150241000Y-66167000D02*
X147066000Y-62992000D01*
X150241000Y-68248000D02*
X150241000Y-66167000D01*
%TO.N,/D5*%
X151511000Y-64897000D02*
X149606000Y-62992000D01*
X151511000Y-68248000D02*
X151511000Y-64897000D01*
%TO.N,/D4*%
X152781000Y-68248000D02*
X152781000Y-63627000D01*
X152781000Y-63627000D02*
X152146000Y-62992000D01*
%TO.N,/D3*%
X154051000Y-68248000D02*
X154051000Y-63627000D01*
X154051000Y-63627000D02*
X154686000Y-62992000D01*
%TO.N,/D2*%
X155321000Y-64897000D02*
X157226000Y-62992000D01*
X155321000Y-68248000D02*
X155321000Y-64897000D01*
%TO.N,/D1*%
X156591000Y-66167000D02*
X159766000Y-62992000D01*
X156591000Y-68248000D02*
X156591000Y-66167000D01*
%TO.N,/D0*%
X157861000Y-68248000D02*
X157861000Y-67223000D01*
X162092000Y-62992000D02*
X162306000Y-62992000D01*
X157861000Y-67223000D02*
X162092000Y-62992000D01*
%TO.N,/WAIT*%
X116586000Y-66826000D02*
X116586000Y-62992000D01*
%TO.N,/INTAK*%
X126746000Y-65786000D02*
X126746000Y-62992000D01*
X127127000Y-66167000D02*
X126746000Y-65786000D01*
X127127000Y-66167000D02*
X127127000Y-67564000D01*
%TO.N,/RESET*%
X139954000Y-69342000D02*
X139954000Y-67310000D01*
X138938000Y-70740000D02*
X138938000Y-70358000D01*
X138938000Y-70358000D02*
X139954000Y-69342000D01*
%TO.N,/NMI*%
X133096000Y-59499500D02*
X133096000Y-61722000D01*
X143161001Y-59658501D02*
X142557500Y-59055000D01*
X143161001Y-65650999D02*
X143161001Y-59658501D01*
X133540500Y-59055000D02*
X133096000Y-59499500D01*
X142557500Y-59055000D02*
X133540500Y-59055000D01*
X142240000Y-66572000D02*
X143161001Y-65650999D01*
X133096000Y-61722000D02*
X131826000Y-62992000D01*
%TO.N,/A1*%
X134112000Y-64770000D02*
X134366000Y-64516000D01*
X134366000Y-64516000D02*
X134366000Y-62992000D01*
X129794000Y-64770000D02*
X134112000Y-64770000D01*
X128397000Y-66167000D02*
X129794000Y-64770000D01*
X128397000Y-67564000D02*
X128397000Y-66167000D01*
%TO.N,/A0*%
X134677990Y-65220010D02*
X136906000Y-62992000D01*
X130613990Y-65220010D02*
X134677990Y-65220010D01*
X129667000Y-66167000D02*
X130613990Y-65220010D01*
X129667000Y-67564000D02*
X129667000Y-66167000D01*
%TO.N,/OE*%
X116051499Y-116241999D02*
X118745000Y-118935500D01*
X158717999Y-89756999D02*
X155988001Y-87027001D01*
X158186010Y-76197990D02*
X162510490Y-76197990D01*
X157861000Y-76523000D02*
X158186010Y-76197990D01*
X116713000Y-103759000D02*
X116051499Y-104420501D01*
X153406010Y-76209990D02*
X154051000Y-75565000D01*
X162510490Y-76197990D02*
X162560000Y-76247500D01*
X155988001Y-82010501D02*
X153406010Y-79428510D01*
X118745000Y-118935500D02*
X146874998Y-118935500D01*
X157416500Y-75565000D02*
X157861000Y-76009500D01*
X146874998Y-118935500D02*
X158717999Y-107092499D01*
X158717999Y-107092499D02*
X158717999Y-89756999D01*
X116051499Y-104420501D02*
X116051499Y-116241999D01*
X155988001Y-87027001D02*
X155988001Y-82010501D01*
X157861000Y-76009500D02*
X157861000Y-77548000D01*
X154051000Y-75565000D02*
X157416500Y-75565000D01*
X157861000Y-77548000D02*
X157861000Y-76523000D01*
X153406010Y-79428510D02*
X153406010Y-76209990D01*
%TO.N,/DIR*%
X160147000Y-90551000D02*
X161353500Y-89344500D01*
X165544500Y-89344500D02*
X166497000Y-88392000D01*
X164782500Y-103124000D02*
X160147000Y-98488500D01*
X166497000Y-68707000D02*
X165624000Y-67834000D01*
X165624000Y-67834000D02*
X164338000Y-67834000D01*
X160147000Y-98488500D02*
X160147000Y-90551000D01*
X160528000Y-107569000D02*
X164084000Y-107569000D01*
X159766000Y-66294000D02*
X164084000Y-66294000D01*
X159131000Y-66929000D02*
X159766000Y-66294000D01*
X159893000Y-103759000D02*
X159893000Y-106934000D01*
X159893000Y-106934000D02*
X160528000Y-107569000D01*
X164782500Y-106870500D02*
X164782500Y-103124000D01*
X164084000Y-107569000D02*
X164782500Y-106870500D01*
X164338000Y-66548000D02*
X164338000Y-67834000D01*
X166497000Y-88392000D02*
X166497000Y-68707000D01*
X161353500Y-89344500D02*
X165544500Y-89344500D01*
X159131000Y-68248000D02*
X159131000Y-66929000D01*
X164084000Y-66294000D02*
X164338000Y-66548000D01*
%TO.N,/DRVSEL*%
X121802000Y-65024000D02*
X119634000Y-65024000D01*
X123317000Y-66539000D02*
X121802000Y-65024000D01*
X119126000Y-64516000D02*
X119126000Y-62992000D01*
X123317000Y-67564000D02*
X123317000Y-66539000D01*
X119634000Y-65024000D02*
X119126000Y-64516000D01*
%TO.N,/RDNMI*%
X124587000Y-67564000D02*
X124587000Y-65913000D01*
X124587000Y-65913000D02*
X121666000Y-62992000D01*
%TO.N,/WRNMI*%
X125857000Y-67564000D02*
X125857000Y-64643000D01*
X125857000Y-64643000D02*
X124206000Y-62992000D01*
%TO.N,/DISKOUT*%
X130937000Y-67564000D02*
X130937000Y-66305020D01*
X131572000Y-65670020D02*
X136767980Y-65670020D01*
X136767980Y-65670020D02*
X139446000Y-62992000D01*
X130937000Y-66305020D02*
X131572000Y-65670020D01*
%TO.N,/DISKIN*%
X138857971Y-66120029D02*
X132334000Y-66120030D01*
X132334000Y-66120030D02*
X132207000Y-66247030D01*
X141986000Y-62992000D02*
X138857971Y-66120029D01*
X132207000Y-66247030D02*
X132207000Y-67564000D01*
%TO.N,Net-(Q1-Pad1)*%
X115636000Y-72630500D02*
X115649500Y-72644000D01*
X115636000Y-69826000D02*
X115636000Y-72630500D01*
%TO.N,Net-(Q2-Pad1)*%
X141290000Y-72086000D02*
X141240000Y-72136000D01*
X141290000Y-69572000D02*
X141290000Y-72086000D01*
%TO.N,/SWDIO*%
X174371000Y-95567500D02*
X173101000Y-96837500D01*
X173101000Y-96837500D02*
X168256502Y-96837500D01*
X163748002Y-92329000D02*
X162203000Y-92329000D01*
X168256502Y-96837500D02*
X163748002Y-92329000D01*
%TO.N,/SWCLK*%
X174371000Y-98171000D02*
X172656500Y-99885500D01*
X174371000Y-98107500D02*
X174371000Y-98171000D01*
X172656500Y-99885500D02*
X164679500Y-99885500D01*
X164679500Y-99885500D02*
X162203000Y-97409000D01*
%TO.N,/D0'*%
X162433000Y-102616000D02*
X159321500Y-99504500D01*
X159321500Y-99504500D02*
X159321500Y-89789000D01*
X159234500Y-81216500D02*
X163639500Y-81216500D01*
X163639500Y-81216500D02*
X164274500Y-81851500D01*
X160782000Y-88328500D02*
X163385500Y-88328500D01*
X156591000Y-78573000D02*
X159234500Y-81216500D01*
X163385500Y-88328500D02*
X164274500Y-87439500D01*
X159321500Y-89789000D02*
X160782000Y-88328500D01*
X164274500Y-81851500D02*
X164274500Y-87439500D01*
X156591000Y-77548000D02*
X156591000Y-78573000D01*
X162433000Y-103759000D02*
X162433000Y-102616000D01*
%TO.N,/D1'*%
X155321000Y-77548000D02*
X155321000Y-78573000D01*
X162433000Y-82359500D02*
X162433000Y-85979000D01*
X161740010Y-81666510D02*
X162433000Y-82359500D01*
X155321000Y-78573000D02*
X158414510Y-81666510D01*
X158414510Y-81666510D02*
X161740010Y-81666510D01*
%TO.N,/D2'*%
X159893000Y-82804000D02*
X159893000Y-85979000D01*
X154051000Y-78573000D02*
X157837500Y-82359500D01*
X159448500Y-82359500D02*
X159893000Y-82804000D01*
X157837500Y-82359500D02*
X159448500Y-82359500D01*
X154051000Y-77548000D02*
X154051000Y-78573000D01*
%TO.N,/D3'*%
X152781000Y-77548000D02*
X152781000Y-80073500D01*
X154813000Y-82105500D02*
X154813000Y-85979000D01*
X152781000Y-80073500D02*
X154813000Y-82105500D01*
%TO.N,/D4'*%
X152273000Y-82105500D02*
X152273000Y-85979000D01*
X151511000Y-77548000D02*
X151511000Y-81343500D01*
X151511000Y-81343500D02*
X152273000Y-82105500D01*
%TO.N,/D5'*%
X149733000Y-81724500D02*
X149733000Y-85979000D01*
X150241000Y-77548000D02*
X150241000Y-81216500D01*
X150241000Y-81216500D02*
X149733000Y-81724500D01*
%TO.N,/D6'*%
X147193000Y-82042000D02*
X147193000Y-85979000D01*
X148971000Y-80264000D02*
X147193000Y-82042000D01*
X148971000Y-77548000D02*
X148971000Y-80264000D01*
%TO.N,/D7'*%
X147701000Y-77548000D02*
X147701000Y-79502000D01*
X142113000Y-81788000D02*
X142113000Y-85979000D01*
X142875000Y-81026000D02*
X142113000Y-81788000D01*
X146177000Y-81026000D02*
X142875000Y-81026000D01*
X147701000Y-79502000D02*
X146177000Y-81026000D01*
%TO.N,/DEBUG_TXD*%
X127524000Y-117586000D02*
X127508000Y-117602000D01*
X127524000Y-116014500D02*
X127524000Y-117586000D01*
%TO.N,/DISKIN'*%
X149733000Y-99250500D02*
X149733000Y-103759000D01*
X133317999Y-81565499D02*
X133317999Y-90010999D01*
X133317999Y-90010999D02*
X140519990Y-97212990D01*
X140519990Y-97212990D02*
X147695490Y-97212990D01*
X130937000Y-79184500D02*
X133317999Y-81565499D01*
X130937000Y-76864000D02*
X130937000Y-79184500D01*
X147695490Y-97212990D02*
X149733000Y-99250500D01*
%TO.N,/DISKOUT'*%
X145923000Y-99377500D02*
X147193000Y-100647500D01*
X147193000Y-100647500D02*
X147193000Y-103759000D01*
X129667000Y-76864000D02*
X129667000Y-80362500D01*
X140144500Y-99377500D02*
X145923000Y-99377500D01*
X130777999Y-90010999D02*
X140144500Y-99377500D01*
X130777999Y-81473499D02*
X130777999Y-90010999D01*
X129667000Y-80362500D02*
X130777999Y-81473499D01*
%TO.N,/WRNMI'*%
X128237999Y-83258997D02*
X128237999Y-89883999D01*
X124587000Y-76864000D02*
X124587000Y-79607998D01*
X124587000Y-79607998D02*
X128237999Y-83258997D01*
X128237999Y-89883999D02*
X142113000Y-103759000D01*
%TO.N,/RDNMI'*%
X125697999Y-83258997D02*
X125697999Y-88740999D01*
X123317000Y-80877998D02*
X125697999Y-83258997D01*
X125697999Y-88740999D02*
X139573000Y-102616000D01*
X123317000Y-76864000D02*
X123317000Y-80877998D01*
X139573000Y-102616000D02*
X139573000Y-103759000D01*
%TO.N,/DRVSEL'*%
X122047000Y-82147998D02*
X123157999Y-83258997D01*
X123157999Y-83258997D02*
X123157999Y-89883999D01*
X122047000Y-76864000D02*
X122047000Y-82147998D01*
X123157999Y-89883999D02*
X137033000Y-103759000D01*
%TO.N,/A0'*%
X131562010Y-75174010D02*
X131127500Y-74739500D01*
X131127500Y-74739500D02*
X128841500Y-74739500D01*
X131562010Y-77915778D02*
X131562010Y-75174010D01*
X134493000Y-85979000D02*
X134493000Y-80846768D01*
X128841500Y-74739500D02*
X128397000Y-75184000D01*
X134493000Y-80846768D02*
X131562010Y-77915778D01*
X128397000Y-75184000D02*
X128397000Y-76864000D01*
%TO.N,/A1'*%
X127127000Y-76864000D02*
X127127000Y-80010000D01*
X129413000Y-82296000D02*
X129413000Y-85979000D01*
X127127000Y-80010000D02*
X129413000Y-82296000D01*
%TO.N,/RESET'*%
X152273000Y-98425000D02*
X152273000Y-103759000D01*
X142367000Y-96075500D02*
X149923500Y-96075500D01*
X138938000Y-77971502D02*
X138208001Y-78701501D01*
X138208001Y-78701501D02*
X138208001Y-91916501D01*
X138938000Y-73877500D02*
X138938000Y-77971502D01*
X149923500Y-96075500D02*
X152273000Y-98425000D01*
X138208001Y-91916501D02*
X142367000Y-96075500D01*
%TO.N,/WAIT'*%
X118077999Y-87343999D02*
X134493000Y-103759000D01*
X118077999Y-87343999D02*
X118077999Y-73072499D01*
X118077999Y-73072499D02*
X117649500Y-72644000D01*
%TO.N,/NMI'*%
X140937999Y-79089501D02*
X140937999Y-91852499D01*
X143637000Y-94551500D02*
X152400000Y-94551500D01*
X152400000Y-94551500D02*
X154813000Y-96964500D01*
X143240000Y-72136000D02*
X143240000Y-76787500D01*
X140937999Y-91852499D02*
X143637000Y-94551500D01*
X154813000Y-96964500D02*
X154813000Y-103759000D01*
X143240000Y-76787500D02*
X140937999Y-79089501D01*
D30*
%TO.N,+5V*%
X133477000Y-67564000D02*
X133477000Y-69215000D01*
D31*
X134760000Y-67551000D02*
X134747000Y-67564000D01*
D30*
X162306000Y-68313000D02*
X160466000Y-68313000D01*
D29*
X168148000Y-93980000D02*
X169735500Y-95567500D01*
D30*
X136652000Y-67551000D02*
X134760000Y-67551000D01*
X160528000Y-71374000D02*
X160528000Y-68375000D01*
X134747000Y-67564000D02*
X133477000Y-67564000D01*
D29*
X172085000Y-72199500D02*
X172085000Y-80010000D01*
D31*
X160528000Y-68375000D02*
X160401000Y-68248000D01*
D30*
X160466000Y-68313000D02*
X160401000Y-68248000D01*
D29*
X172085000Y-80010000D02*
X168148000Y-83947000D01*
X168148000Y-83947000D02*
X168148000Y-93980000D01*
X169735500Y-95567500D02*
X171831000Y-95567500D01*
D31*
%TO.N,Net-(D1-Pad1)*%
X133099500Y-116014500D02*
X129524000Y-116014500D01*
%TD*%
M02*
