M48
; DRILL file {KiCad (6.0.1)} date Thu Mar 24 11:59:56 2022
; FORMAT={-:-/ absolute / inch / decimal}
; #@! TF.CreationDate,2022-03-24T11:59:56-04:00
; #@! TF.GenerationSoftware,Kicad,Pcbnew,(6.0.1)
; #@! TF.FileFunction,Plated,1,2,PTH
FMAT,2
INCH
; #@! TA.AperFunction,Plated,PTH,ComponentDrill
T1C0.0394
%
G90
G05
T1
X4.3Y-4.48
X4.3Y-4.58
X4.4Y-4.48
X4.4Y-4.58
X4.5Y-4.48
X4.5Y-4.58
X4.6Y-4.48
X4.6Y-4.58
X4.7Y-4.48
X4.7Y-4.58
X4.8Y-4.48
X4.8Y-4.58
X4.9Y-4.48
X4.9Y-4.58
X5.0Y-4.48
X5.0Y-4.58
X5.1Y-4.48
X5.1Y-4.58
X5.2Y-4.48
X5.2Y-4.58
X5.3Y-4.48
X5.3Y-4.58
X5.4Y-4.48
X5.4Y-4.58
X5.5Y-4.48
X5.5Y-4.58
X5.6Y-4.48
X5.6Y-4.58
X5.7Y-4.48
X5.7Y-4.58
X5.8Y-4.48
X5.8Y-4.58
X5.9Y-4.48
X5.9Y-4.58
X6.0Y-4.48
X6.0Y-4.58
X6.1Y-4.48
X6.1Y-4.58
X6.2Y-4.48
X6.2Y-4.58
T0
M30
